<svg xmlns="http://www.w3.org/2000/svg" style="background: rgba(0, 0, 0, 0);" preserveAspectRatio="xMidYMid" viewBox="-172.2 58.07 843.33 59.58"><defs><linearGradient id="editing-gradient-gradient" x1="0" x2="1" y1="0.5" y2="0.5" gradientUnits="objectBoundingBox"><stop offset="0" stop-color="#f0f"/><stop offset="1" stop-color="#00ffff"/></linearGradient></defs><g><g transform="translate(-171.68975281715393, 104.79000091552734)"><path d="M21.82-23.10L21.82-23.10L21.82-23.10Q30.27-20.93 30.27-12.67L30.27-12.67L30.27-12.67Q30.27-6.72 25.22-2.82L25.22-2.82L25.22-2.82Q19.84 1.28 11.01 1.28L11.01 1.28L11.01 1.28Q5.76 1.28 2.62-0.74L2.62-0.74L2.62-0.74Q-0.51-2.75-0.51-6.08L-0.51-6.08L-0.51-6.08Q-0.51-9.41 1.98-11.46L1.98-11.46L1.98-11.46Q3.26-9.09 5.54-8L5.54-8L5.54-8Q7.81-6.91 10.72-6.91L10.72-6.91L10.72-6.91Q13.63-6.91 15.49-8.45L15.49-8.45L15.49-8.45Q17.34-9.98 17.34-12.99L17.34-12.99L17.34-12.99Q17.34-18.69 9.54-18.69L9.54-18.69L10.62-24.45L10.62-24.45Q19.97-25.98 19.97-30.59L19.97-30.59L19.97-30.59Q19.97-32.45 18.69-33.47L18.69-33.47L18.69-33.47Q17.41-34.50 14.98-34.50L14.98-34.50L14.98-34.50Q10.69-34.50 6.91-30.53L6.91-30.53L6.91-30.53Q5.70-30.85 5.18-31.71L5.18-31.71L5.18-31.71Q4.67-32.58 4.67-34.37L4.67-34.37L4.67-34.37Q4.67-36.16 5.95-37.86L5.95-37.86L5.95-37.86Q7.23-39.55 9.47-40.83L9.47-40.83L9.47-40.83Q14.27-43.52 20.74-43.52L20.74-43.52L20.74-43.52Q25.66-43.52 28.80-40.96L28.80-40.96L28.80-40.96Q32.06-38.34 32.06-34.43L32.06-34.43L32.06-34.43Q32.06-30.91 29.25-27.84L29.25-27.84L29.25-27.84Q26.43-24.77 21.82-23.10ZM76.67-26.56L76.67-26.56L76.67-26.56Q76.67 0.70 47.10 0.70L47.10 0.70L47.10 0.70Q42.37 0.70 34.56-0.45L34.56-0.45L41.73-38.27L41.73-38.27Q42.24-40.83 42.56-42.30L42.56-42.30L42.56-42.30Q52.29-43.01 56.61-43.01L56.61-43.01L56.61-43.01Q60.93-43.01 64.90-42.11L64.90-42.11L64.90-42.11Q68.86-41.22 71.49-39.23L71.49-39.23L71.49-39.23Q76.67-35.33 76.67-26.56ZM63.49-28.93L63.49-28.93L63.49-28.93Q63.49-38.46 56.64-38.46L56.64-38.46L56-38.46L56-38.46Q55.68-38.46 55.36-38.40L55.36-38.40L48.77-4.03L48.77-4.03Q49.02-3.90 49.28-3.90L49.28-3.90L49.79-3.90L49.79-3.90Q52.16-3.90 54.62-5.38L54.62-5.38L54.62-5.38Q57.09-6.85 59.01-9.86L59.01-9.86L59.01-9.86Q63.49-16.83 63.49-28.93ZM98.56 0L91.20 0L102.78-42.24L116.16-42.24L119.10-18.11L131.01-42.24L142.21-42.24L143.36-10.62L143.36-10.62Q143.62-4.35 146.69-2.43L146.69-2.43L146.69-2.43Q145.98-1.15 143.94 0.06L143.94 0.06L143.94 0.06Q141.89 1.28 139.17 1.28L139.17 1.28L139.17 1.28Q136.45 1.28 134.85 0.51L134.85 0.51L134.85 0.51Q133.25-0.26 132.35-1.54L132.35-1.54L132.35-1.54Q130.75-3.84 130.75-8.26L130.75-8.26L130.75-28.03L118.14 0L110.21 0L105.73-28.74L98.56 0ZM163.39 1.28L163.39 1.28L163.39 1.28Q149.31 1.28 149.31-11.97L149.31-11.97L149.31-11.97Q149.31-21.38 154.50-27.46L154.50-27.46L154.50-27.46Q160-33.92 169.54-33.92L169.54-33.92L169.54-33.92Q176.45-33.92 179.97-30.72L179.97-30.72L179.97-30.72Q183.49-27.52 183.49-20.80L183.49-20.80L183.49-20.80Q183.49-10.56 177.98-4.61L177.98-4.61L177.98-4.61Q172.61 1.28 163.39 1.28ZM165.06-26.56L165.06-26.56L165.06-26.56Q164.29-24.83 163.68-22.24L163.68-22.24L163.68-22.24Q163.07-19.65 162.30-15.55L162.30-15.55L162.30-15.55Q161.54-11.46 161.54-6.40L161.54-6.40L161.54-6.40Q161.54-4.74 162.08-3.65L162.08-3.65L162.08-3.65Q162.62-2.56 164.10-2.56L164.10-2.56L164.10-2.56Q165.57-2.56 166.50-3.26L166.50-3.26L166.50-3.26Q167.42-3.97 168.13-5.63L168.13-5.63L168.13-5.63Q169.41-8.58 170.43-14.05L170.43-14.05L170.43-14.05Q171.46-19.52 171.55-21.89L171.55-21.89L171.55-21.89Q171.65-24.26 171.65-26.02L171.65-26.02L171.65-26.02Q171.65-27.78 171.14-28.93L171.14-28.93L171.14-28.93Q170.62-30.08 169.18-30.08L169.18-30.08L169.18-30.08Q167.74-30.08 166.78-29.18L166.78-29.18L166.78-29.18Q165.82-28.29 165.06-26.56ZM214.34 1.28L214.34 1.28L214.34 1.28Q206.59 1.28 206.59-4.74L206.59-4.74L206.59-4.74Q206.66-6.40 207.17-9.22L207.17-9.22L208.32-15.10L208.32-15.10Q210.05-23.42 210.05-25.28L210.05-25.28L210.05-25.28Q210.05-28.99 207.87-28.99L207.87-28.99L207.87-28.99Q204.22-28.99 202.30-19.46L202.30-19.46L198.53 0L185.66 1.28L192.32-32.70L202.82-33.92L201.79-27.65L201.79-27.65Q204.80-33.92 214.02-33.92L214.02-33.92L214.02-33.92Q218.50-33.92 220.38-32.03L220.38-32.03L220.38-32.03Q222.27-30.14 222.27-25.92L222.27-25.92L222.27-25.92Q222.27-21.95 220.22-12.67L220.22-12.67L220.22-12.67Q219.26-8.51 219.26-6.94L219.26-6.94L219.26-6.94Q219.26-5.38 220.13-4.48L220.13-4.48L220.13-4.48Q220.99-3.58 222.27-3.46L222.27-3.46L222.27-3.46Q221.63-1.28 219.42 0L219.42 0L219.42 0Q217.22 1.28 214.34 1.28ZM243.90-30.34L243.90-30.34L243.90-30.34Q247.36-33.92 254.66-33.92L254.66-33.92L254.66-33.92Q258.69-33.92 260.90-31.78L260.90-31.78L260.90-31.78Q263.10-29.63 263.10-25.70L263.10-25.70L263.10-25.70Q263.10-21.76 260.90-18.98L260.90-18.98L260.90-18.98Q258.69-16.19 254.59-15.04L254.59-15.04L254.59-15.04Q254.91-13.76 255.36-12.42L255.36-12.42L256.26-9.86L256.26-9.86Q257.47-6.59 258.43-5.44L258.43-5.44L258.43-5.44Q259.39-4.29 260.67-3.90L260.67-3.90L260.67-3.90Q259.97-1.28 257.41 0.13L257.41 0.13L257.41 0.13Q255.36 1.28 252.54 1.28L252.54 1.28L252.54 1.28Q244.29 1.28 243.20-11.46L243.20-11.46L243.20-11.46Q243.01-13.25 243.01-15.04L243.01-15.04L243.01-15.04Q246.21-15.94 248.45-18.94L248.45-18.94L248.45-18.94Q250.69-21.95 250.69-25.47L250.69-25.47L250.69-25.47Q250.69-28.99 248.19-28.99L248.19-28.99L248.19-28.99Q246.40-28.99 244.99-27.01L244.99-27.01L244.99-27.01Q243.58-25.02 242.94-21.63L242.94-21.63L238.72 0L225.79 1.28L234.75-44.80L247.62-46.08L246.14-38.46L246.14-38.46Q245.18-33.09 243.90-30.34ZM291.97-10.82L291.97-10.82L291.97-10.82Q293.57-9.73 293.57-7.33L293.57-7.33L293.57-7.33Q293.57-4.93 292.35-3.39L292.35-3.39L292.35-3.39Q291.14-1.86 289.15-0.83L289.15-0.83L289.15-0.83Q285.06 1.28 280.64 1.28L280.64 1.28L280.64 1.28Q276.22 1.28 273.63 0.32L273.63 0.32L273.63 0.32Q271.04-0.64 269.31-2.43L269.31-2.43L269.31-2.43Q265.92-5.82 265.92-12.03L265.92-12.03L265.92-12.03Q265.92-21.70 271.17-27.58L271.17-27.58L271.17-27.58Q276.80-33.92 286.59-33.92L286.59-33.92L286.59-33.92Q292.67-33.92 295.68-31.36L295.68-31.36L295.68-31.36Q297.92-29.44 297.92-26.30L297.92-26.30L297.92-26.30Q297.92-15.04 278.46-15.04L278.46-15.04L278.46-15.04Q278.21-13.38 278.21-11.97L278.21-11.97L278.21-11.97Q278.21-9.02 279.52-7.90L279.52-7.90L279.52-7.90Q280.83-6.78 283.26-6.78L283.26-6.78L283.26-6.78Q285.70-6.78 288.29-7.90L288.29-7.90L288.29-7.90Q290.88-9.02 291.97-10.82ZM278.91-17.79L278.91-17.79L278.91-17.79Q283.46-17.79 286.08-20.61L286.08-20.61L286.08-20.61Q288.70-23.30 288.70-27.58L288.70-27.58L288.70-27.58Q288.70-29.06 288.16-29.86L288.16-29.86L288.16-29.86Q287.62-30.66 286.53-30.66L286.53-30.66L286.53-30.66Q285.44-30.66 284.51-30.24L284.51-30.24L284.51-30.24Q283.58-29.82 282.62-28.42L282.62-28.42L282.62-28.42Q280.26-25.22 278.91-17.79ZM320.45-7.23L320.45-7.23L320.45-7.23Q317.12-3.78 311.04-3.78L311.04-3.78L311.04-3.78Q303.42-3.78 301.82-9.34L301.82-9.34L301.82-9.34Q301.31-11.01 301.31-12.86L301.31-12.86L301.31-12.86Q301.31-14.72 301.70-16.64L301.70-16.64L304.70-32.64L317.70-33.92L314.18-15.30L314.18-15.30Q314.05-14.46 313.86-13.57L313.86-13.57L313.86-13.57Q313.66-12.67 313.66-11.74L313.66-11.74L313.66-11.74Q313.66-10.82 313.98-10.21L313.98-10.21L313.98-10.21Q314.30-9.60 314.75-9.22L314.75-9.22L314.75-9.22Q315.52-8.70 316.90-8.70L316.90-8.70L316.90-8.70Q318.27-8.70 319.46-10.37L319.46-10.37L319.46-10.37Q320.64-12.03 321.22-14.91L321.22-14.91L324.74-32.64L337.34-33.92L332.54-8.77L332.54-8.77Q330.18 3.52 325.31 8.38L325.31 8.38L325.31 8.38Q322.82 10.88 319.58 11.87L319.58 11.87L319.58 11.87Q316.35 12.86 312.19 12.86L312.19 12.86L312.19 12.86Q305.47 12.86 301.63 10.75L301.63 10.75L301.63 10.75Q297.79 8.64 297.79 5.12L297.79 5.12L297.79 5.12Q297.79 2.50 299.78 0.99L299.78 0.99L299.78 0.99Q301.76-0.51 304.83-0.51L304.83-0.51L304.83-0.51Q307.52-0.51 309.57 0.64L309.57 0.64L309.57 0.64Q310.78 1.34 311.36 2.24L311.36 2.24L311.36 2.24Q309.89 3.52 309.89 5.63L309.89 5.63L309.89 5.63Q309.89 8.45 312.45 8.45L312.45 8.45L312.45 8.45Q316.67 8.45 319.10-1.28L319.10-1.28L319.10-1.28Q319.81-4.16 320.45-7.23ZM358.78-22.46L358.78-22.46L358.78-22.46Q359.68-24.83 359.68-26.88L359.68-26.88L359.68-26.88Q359.68-30.66 356.61-30.66L356.61-30.66L356.61-30.66Q355.01-30.66 353.70-29.22L353.70-29.22L353.70-29.22Q352.38-27.78 352.38-25.98L352.38-25.98L352.38-25.98Q352.38-24.70 353.41-23.68L353.41-23.68L353.41-23.68Q354.88-22.27 358.66-19.97L358.66-19.97L358.66-19.97Q362.43-17.66 363.87-15.78L363.87-15.78L363.87-15.78Q365.31-13.89 365.31-11.30L365.31-11.30L365.31-11.30Q365.31-8.70 364.06-6.34L364.06-6.34L364.06-6.34Q362.82-3.97 360.58-2.30L360.58-2.30L360.58-2.30Q355.78 1.28 348.10 1.28L348.10 1.28L348.10 1.28Q343.94 1.28 340.74-0.90L340.74-0.90L340.74-0.90Q337.54-3.01 337.54-5.50L337.54-5.50L337.54-5.50Q337.54-8 339.36-9.47L339.36-9.47L339.36-9.47Q341.18-10.94 343.87-10.94L343.87-10.94L343.87-10.94Q346.56-10.94 348.22-9.92L348.22-9.92L348.22-9.92Q347.39-7.81 347.39-6.40L347.39-6.40L347.39-6.40Q347.39-2.18 350.98-2.18L350.98-2.18L350.98-2.18Q352.51-2.18 353.54-3.14L353.54-3.14L353.54-3.14Q354.56-4.10 354.56-5.76L354.56-5.76L354.56-5.76Q354.56-9.02 349.06-12.48L349.06-12.48L349.06-12.48Q344.58-15.42 343.55-16.58L343.55-16.58L343.55-16.58Q341.82-18.62 341.82-21.18L341.82-21.18L341.82-21.18Q341.82-23.74 343.04-26.18L343.04-26.18L343.04-26.18Q344.26-28.61 346.50-30.34L346.50-30.34L346.50-30.34Q351.17-33.92 359.30-33.92L359.30-33.92L359.30-33.92Q363.46-33.92 365.92-32.26L365.92-32.26L365.92-32.26Q368.38-30.59 368.38-27.78L368.38-27.78L368.38-27.78Q368.38-24.96 366.69-23.36L366.69-23.36L366.69-23.36Q364.99-21.76 361.92-21.76L361.92-21.76L361.92-21.76Q359.81-21.76 358.78-22.46ZM386.30-10.37L386.30-10.37L386.30-10.37Q384.26-11.84 384.26-14.66L384.26-14.66L384.26-14.66Q384.26-16.19 385.02-17.44L385.02-17.44L385.02-17.44Q385.79-18.69 387.33-18.88L387.33-18.88L399.94-18.88L399.94-18.88Q402.05-18.88 402.69-20.16L402.69-20.16L402.69-20.16Q403.71-19.58 404.16-18.37L404.16-18.37L404.16-18.37Q404.61-17.15 404.61-15.87L404.61-15.87L404.61-15.87Q404.61-14.59 403.62-13.34L403.62-13.34L403.62-13.34Q402.62-12.10 401.15-11.97L401.15-11.97L389.44-11.97L389.44-11.97Q388.10-11.97 387.46-11.55L387.46-11.55L387.46-11.55Q386.82-11.14 386.30-10.37ZM435.33 0L421.63 0L429.44-42.05L429.44-42.05Q435.78-42.75 445.02-42.75L445.02-42.75L445.02-42.75Q454.27-42.75 458.56-40.06L458.56-40.06L458.56-40.06Q462.85-37.38 462.85-31.97L462.85-31.97L462.85-31.97Q462.85-26.56 460.06-23.17L460.06-23.17L460.06-23.17Q457.28-19.78 452.48-18.69L452.48-18.69L452.48-18.69Q453.57-13.38 456.06-9.09L456.06-9.09L456.06-9.09Q458.37-5.06 461.06-3.78L461.06-3.78L461.06-3.78Q460.10-1.09 458.14 0.10L458.14 0.10L458.14 0.10Q456.19 1.28 453.41 1.28L453.41 1.28L453.41 1.28Q450.62 1.28 448.45-0.35L448.45-0.35L448.45-0.35Q446.27-1.98 444.54-4.99L444.54-4.99L444.54-4.99Q440.90-11.52 440.51-21.82L440.51-21.82L440.96-21.82L440.96-21.82Q445.70-21.95 448.06-24.42L448.06-24.42L448.06-24.42Q450.43-26.88 450.43-32.06L450.43-32.06L450.43-32.06Q450.43-38.53 444.99-38.78L444.99-38.78L443.58-38.78L443.58-38.78Q443.01-38.78 442.69-38.72L442.69-38.72L435.33 0ZM481.15-3.52L481.15-3.52L481.15-3.52Q479.17 1.28 472.83 1.28L472.83 1.28L472.83 1.28Q469.57 1.28 467.52-0.96L467.52-0.96L467.52-0.96Q465.79-2.94 465.79-4.93L465.79-4.93L465.79-4.93Q465.79-10.11 468.16-20.22L468.16-20.22L470.53-32.64L483.52-33.92L479.62-13.70L479.62-13.70Q478.53-8.96 478.53-7.30L478.53-7.30L478.53-7.30Q478.53-3.65 481.15-3.52ZM471.68-41.54L471.68-41.54L471.68-41.54Q471.68-44.03 473.76-45.38L473.76-45.38L473.76-45.38Q475.84-46.72 478.85-46.72L478.85-46.72L478.85-46.72Q481.86-46.72 483.68-45.38L483.68-45.38L483.68-45.38Q485.50-44.03 485.50-41.54L485.50-41.54L485.50-41.54Q485.50-39.04 483.49-37.76L483.49-37.76L483.49-37.76Q481.47-36.48 478.46-36.48L478.46-36.48L478.46-36.48Q475.46-36.48 473.57-37.76L473.57-37.76L473.57-37.76Q471.68-39.04 471.68-41.54ZM491.14-26.75L491.14-26.75L491.14-26.75Q493.31-29.82 496.61-31.87L496.61-31.87L496.61-31.87Q499.90-33.92 503.94-33.92L503.94-33.92L503.94-33.92Q507.97-33.92 509.89-32.64L509.89-32.64L522.43-33.92L518.08-9.34L518.08-9.34Q515.84 3.20 511.10 8.13L511.10 8.13L511.10 8.13Q506.56 12.80 497.73 12.80L497.73 12.80L497.73 12.80Q491.01 12.80 487.17 10.69L487.17 10.69L487.17 10.69Q483.33 8.58 483.33 5.06L483.33 5.06L483.33 5.06Q483.33 2.43 485.31 0.93L485.31 0.93L485.31 0.93Q487.30-0.58 490.37-0.58L490.37-0.58L490.37-0.58Q493.06-0.58 495.10 0.64L495.10 0.64L495.10 0.64Q496.32 1.28 496.90 2.18L496.90 2.18L496.90 2.18Q495.42 3.46 495.42 5.57L495.42 5.57L495.42 5.57Q495.42 8.32 497.98 8.32L497.98 8.32L497.98 8.32Q502.27 8.32 504.70-1.79L504.70-1.79L504.70-1.79Q505.41-4.54 505.98-7.30L505.98-7.30L505.98-7.30Q503.10-3.78 496.58-3.78L496.58-3.78L496.58-3.78Q492.03-3.78 489.41-5.95L489.41-5.95L489.41-5.95Q486.78-8.13 486.78-13.25L486.78-13.25L486.78-13.25Q486.78-16.45 487.87-20.06L487.87-20.06L487.87-20.06Q488.96-23.68 491.14-26.75ZM499.46-13.06L499.46-13.06L499.46-13.06Q499.46-8.70 501.70-8.70L501.70-8.70L501.70-8.70Q503.23-8.70 504.70-10.37L504.70-10.37L504.70-10.37Q505.86-11.71 506.30-13.70L506.30-13.70L509.57-30.14L509.57-30.14Q509.25-30.21 508.93-30.34L508.93-30.34L508.93-30.34Q508.29-30.59 507.46-30.59L507.46-30.59L507.46-30.59Q503.55-30.59 501.25-24.19L501.25-24.19L501.25-24.19Q499.46-19.20 499.46-13.06ZM529.47-26.75L529.47-26.75L529.47-26.75Q531.65-29.82 534.94-31.87L534.94-31.87L534.94-31.87Q538.24-33.92 542.27-33.92L542.27-33.92L542.27-33.92Q546.30-33.92 548.22-32.64L548.22-32.64L560.77-33.92L556.42-9.34L556.42-9.34Q554.18 3.20 549.44 8.13L549.44 8.13L549.44 8.13Q544.90 12.80 536.06 12.80L536.06 12.80L536.06 12.80Q529.34 12.80 525.50 10.69L525.50 10.69L525.50 10.69Q521.66 8.58 521.66 5.06L521.66 5.06L521.66 5.06Q521.66 2.43 523.65 0.93L523.65 0.93L523.65 0.93Q525.63-0.58 528.70-0.58L528.70-0.58L528.70-0.58Q531.39-0.58 533.44 0.64L533.44 0.64L533.44 0.64Q534.66 1.28 535.23 2.18L535.23 2.18L535.23 2.18Q533.76 3.46 533.76 5.57L533.76 5.57L533.76 5.57Q533.76 8.32 536.32 8.32L536.32 8.32L536.32 8.32Q540.61 8.32 543.04-1.79L543.04-1.79L543.04-1.79Q543.74-4.54 544.32-7.30L544.32-7.30L544.32-7.30Q541.44-3.78 534.91-3.78L534.91-3.78L534.91-3.78Q530.37-3.78 527.74-5.95L527.74-5.95L527.74-5.95Q525.12-8.13 525.12-13.25L525.12-13.25L525.12-13.25Q525.12-16.45 526.21-20.06L526.21-20.06L526.21-20.06Q527.30-23.68 529.47-26.75ZM537.79-13.06L537.79-13.06L537.79-13.06Q537.79-8.70 540.03-8.70L540.03-8.70L540.03-8.70Q541.57-8.70 543.04-10.37L543.04-10.37L543.04-10.37Q544.19-11.71 544.64-13.70L544.64-13.70L547.90-30.14L547.90-30.14Q547.58-30.21 547.26-30.34L547.26-30.34L547.26-30.34Q546.62-30.59 545.79-30.59L545.79-30.59L545.79-30.59Q541.89-30.59 539.58-24.19L539.58-24.19L539.58-24.19Q537.79-19.20 537.79-13.06ZM589.18-10.82L589.18-10.82L589.18-10.82Q590.78-9.73 590.78-7.33L590.78-7.33L590.78-7.33Q590.78-4.93 589.57-3.39L589.57-3.39L589.57-3.39Q588.35-1.86 586.37-0.83L586.37-0.83L586.37-0.83Q582.27 1.28 577.86 1.28L577.86 1.28L577.86 1.28Q573.44 1.28 570.85 0.32L570.85 0.32L570.85 0.32Q568.26-0.64 566.53-2.43L566.53-2.43L566.53-2.43Q563.14-5.82 563.14-12.03L563.14-12.03L563.14-12.03Q563.14-21.70 568.38-27.58L568.38-27.58L568.38-27.58Q574.02-33.92 583.81-33.92L583.81-33.92L583.81-33.92Q589.89-33.92 592.90-31.36L592.90-31.36L592.90-31.36Q595.14-29.44 595.14-26.30L595.14-26.30L595.14-26.30Q595.14-15.04 575.68-15.04L575.68-15.04L575.68-15.04Q575.42-13.38 575.42-11.97L575.42-11.97L575.42-11.97Q575.42-9.02 576.74-7.90L576.74-7.90L576.74-7.90Q578.05-6.78 580.48-6.78L580.48-6.78L580.48-6.78Q582.91-6.78 585.50-7.90L585.50-7.90L585.50-7.90Q588.10-9.02 589.18-10.82ZM576.13-17.79L576.13-17.79L576.13-17.79Q580.67-17.79 583.30-20.61L583.30-20.61L583.30-20.61Q585.92-23.30 585.92-27.58L585.92-27.58L585.92-27.58Q585.92-29.06 585.38-29.86L585.38-29.86L585.38-29.86Q584.83-30.66 583.74-30.66L583.74-30.66L583.74-30.66Q582.66-30.66 581.73-30.24L581.73-30.24L581.73-30.24Q580.80-29.82 579.84-28.42L579.84-28.42L579.84-28.42Q577.47-25.22 576.13-17.79ZM617.47-33.92L617.47-33.92L617.47-33.92Q619.78-33.92 621.57-33.41L621.57-33.41L621.57-33.41Q621.63-33.66 621.76-34.37L621.76-34.37L622.08-36.35L622.08-36.35Q622.34-37.63 622.72-39.74L622.72-39.74L623.74-44.80L636.48-46.08L629.38-8.96L629.38-8.96Q629.31-8.58 629.31-7.94L629.31-7.94L629.31-6.91L629.31-6.91Q629.31-5.50 630.02-4.45L630.02-4.45L630.02-4.45Q630.72-3.39 631.87-3.39L631.87-3.39L631.87-3.39Q630.59-0.38 626.69 0.90L626.69 0.90L626.69 0.90Q625.34 1.28 623.46 1.28L623.46 1.28L623.46 1.28Q621.57 1.28 619.84 0.29L619.84 0.29L619.84 0.29Q618.11-0.70 617.60-2.37L617.60-2.37L617.60-2.37Q616.58-0.70 614.53 0.29L614.53 0.29L614.53 0.29Q612.48 1.28 609.50 1.28L609.50 1.28L609.50 1.28Q606.53 1.28 604.06 0.51L604.06 0.51L604.06 0.51Q601.60-0.26 600.06-1.92L600.06-1.92L600.06-1.92Q597.25-5.18 597.25-12.61L597.25-12.61L597.25-12.61Q597.25-22.21 602.88-28.03L602.88-28.03L602.88-28.03Q608.51-33.92 617.47-33.92ZM617.02-30.08L617.02-30.08L617.02-30.08Q614.66-30.08 613.38-27.52L613.38-27.52L613.38-27.52Q612.10-24.96 610.78-18.62L610.78-18.62L610.78-18.62Q609.47-12.29 609.47-6.59L609.47-6.59L609.47-6.59Q609.47-2.69 611.78-2.69L611.78-2.69L611.78-2.69Q613.82-2.69 615.26-4.74L615.26-4.74L615.26-4.74Q616.70-6.78 617.28-10.18L617.28-10.18L620.74-28.93L620.74-28.93Q619.39-30.08 617.02-30.08ZM669.63-22.46L669.63-22.46L669.63-22.46Q670.53-24.83 670.53-26.88L670.53-26.88L670.53-26.88Q670.53-30.66 667.46-30.66L667.46-30.66L667.46-30.66Q665.86-30.66 664.54-29.22L664.54-29.22L664.54-29.22Q663.23-27.78 663.23-25.98L663.23-25.98L663.23-25.98Q663.23-24.70 664.26-23.68L664.26-23.68L664.26-23.68Q665.73-22.27 669.50-19.97L669.50-19.97L669.50-19.97Q673.28-17.66 674.72-15.78L674.72-15.78L674.72-15.78Q676.16-13.89 676.16-11.30L676.16-11.30L676.16-11.30Q676.16-8.70 674.91-6.34L674.91-6.34L674.91-6.34Q673.66-3.97 671.42-2.30L671.42-2.30L671.42-2.30Q666.62 1.28 658.94 1.28L658.94 1.28L658.94 1.28Q654.78 1.28 651.58-0.90L651.58-0.90L651.58-0.90Q648.38-3.01 648.38-5.50L648.38-5.50L648.38-5.50Q648.38-8 650.21-9.47L650.21-9.47L650.21-9.47Q652.03-10.94 654.72-10.94L654.72-10.94L654.72-10.94Q657.41-10.94 659.07-9.92L659.07-9.92L659.07-9.92Q658.24-7.81 658.24-6.40L658.24-6.40L658.24-6.40Q658.24-2.18 661.82-2.18L661.82-2.18L661.82-2.18Q663.36-2.18 664.38-3.14L664.38-3.14L664.38-3.14Q665.41-4.10 665.41-5.76L665.41-5.76L665.41-5.76Q665.41-9.02 659.90-12.48L659.90-12.48L659.90-12.48Q655.42-15.42 654.40-16.58L654.40-16.58L654.40-16.58Q652.67-18.62 652.67-21.18L652.67-21.18L652.67-21.18Q652.67-23.74 653.89-26.18L653.89-26.18L653.89-26.18Q655.10-28.61 657.34-30.34L657.34-30.34L657.34-30.34Q662.02-33.92 670.14-33.92L670.14-33.92L670.14-33.92Q674.30-33.92 676.77-32.26L676.77-32.26L676.77-32.26Q679.23-30.59 679.23-27.78L679.23-27.78L679.23-27.78Q679.23-24.96 677.54-23.36L677.54-23.36L677.54-23.36Q675.84-21.76 672.77-21.76L672.77-21.76L672.77-21.76Q670.66-21.76 669.63-22.46ZM682.62-6.40L682.62-6.40L682.62-6.40Q682.62-8.13 683.52-12.48L683.52-12.48L686.91-29.76L683.14-29.76L683.39-31.68L683.39-31.68Q691.07-33.98 698.50-39.62L698.50-39.62L701.57-39.62L700.03-32.64L705.02-32.64L704.45-29.76L699.52-29.76L696.26-12.48L696.26-12.48Q695.42-8.51 695.42-7.17L695.42-7.17L695.42-7.17Q695.42-4.10 698.11-3.46L698.11-3.46L698.11-3.46Q697.47-1.28 695.17 0L695.17 0L695.17 0Q692.86 1.28 689.60 1.28L689.60 1.28L689.60 1.28Q686.34 1.28 684.48-0.77L684.48-0.77L684.48-0.77Q682.62-2.82 682.62-6.40ZM718.40 1.28L718.40 1.28L718.40 1.28Q704.32 1.28 704.32-11.97L704.32-11.97L704.32-11.97Q704.32-21.38 709.50-27.46L709.50-27.46L709.50-27.46Q715.01-33.92 724.54-33.92L724.54-33.92L724.54-33.92Q731.46-33.92 734.98-30.72L734.98-30.72L734.98-30.72Q738.50-27.52 738.50-20.80L738.50-20.80L738.50-20.80Q738.50-10.56 732.99-4.61L732.99-4.61L732.99-4.61Q727.62 1.28 718.40 1.28ZM720.06-26.56L720.06-26.56L720.06-26.56Q719.30-24.83 718.69-22.24L718.69-22.24L718.69-22.24Q718.08-19.65 717.31-15.55L717.31-15.55L717.31-15.55Q716.54-11.46 716.54-6.40L716.54-6.40L716.54-6.40Q716.54-4.74 717.09-3.65L717.09-3.65L717.09-3.65Q717.63-2.56 719.10-2.56L719.10-2.56L719.10-2.56Q720.58-2.56 721.50-3.26L721.50-3.26L721.50-3.26Q722.43-3.97 723.14-5.63L723.14-5.63L723.14-5.63Q724.42-8.58 725.44-14.05L725.44-14.05L725.44-14.05Q726.46-19.52 726.56-21.89L726.56-21.89L726.56-21.89Q726.66-24.26 726.66-26.02L726.66-26.02L726.66-26.02Q726.66-27.78 726.14-28.93L726.14-28.93L726.14-28.93Q725.63-30.08 724.19-30.08L724.19-30.08L724.19-30.08Q722.75-30.08 721.79-29.18L721.79-29.18L721.79-29.18Q720.83-28.29 720.06-26.56ZM773.70-26.62L773.70-26.62L773.70-26.62Q773.70-23.94 771.46-22.27L771.46-22.27L771.46-22.27Q769.22-20.61 765.57-20.61L765.57-20.61L765.57-20.61Q764.03-20.61 763.14-21.06L763.14-21.06L763.14-21.06Q763.84-22.72 764.06-24.80L764.06-24.80L764.06-24.80Q764.29-26.88 764.29-27.46L764.29-27.46L764.29-27.46Q764.29-30.14 762.43-30.14L762.43-30.14L762.43-30.14Q761.15-30.14 759.71-28.54L759.71-28.54L759.71-28.54Q758.27-26.94 757.06-24.45L757.06-24.45L757.06-24.45Q754.37-18.69 754.37-12.86L754.37-12.86L754.37-12.86Q754.37-9.66 755.58-8.22L755.58-8.22L755.58-8.22Q756.80-6.78 759.49-6.78L759.49-6.78L759.49-6.78Q763.20-6.78 766.14-9.86L766.14-9.86L766.14-9.86Q766.98-10.82 767.42-11.90L767.42-11.90L767.42-11.90Q769.86-10.62 769.86-7.10L769.86-7.10L769.86-7.10Q769.86-3.52 765.89-1.15L765.89-1.15L765.89-1.15Q761.79 1.28 755.26 1.28L755.26 1.28L755.26 1.28Q742.27 1.28 742.27-12.48L742.27-12.48L742.27-12.48Q742.27-22.53 747.97-28.29L747.97-28.29L747.97-28.29Q753.47-33.92 763.58-33.92L763.58-33.92L763.58-33.92Q773.70-33.92 773.70-26.62ZM791.94-30.34L791.94-30.34L791.94-30.34Q795.39-33.92 802.69-33.92L802.69-33.92L802.69-33.92Q806.72-33.92 808.93-31.78L808.93-31.78L808.93-31.78Q811.14-29.63 811.14-25.70L811.14-25.70L811.14-25.70Q811.14-21.76 808.93-18.98L808.93-18.98L808.93-18.98Q806.72-16.19 802.62-15.04L802.62-15.04L802.62-15.04Q802.94-13.76 803.39-12.42L803.39-12.42L804.29-9.86L804.29-9.86Q805.50-6.59 806.46-5.44L806.46-5.44L806.46-5.44Q807.42-4.29 808.70-3.90L808.70-3.90L808.70-3.90Q808.00-1.28 805.44 0.13L805.44 0.13L805.44 0.13Q803.39 1.28 800.58 1.28L800.58 1.28L800.58 1.28Q792.32 1.28 791.23-11.46L791.23-11.46L791.23-11.46Q791.04-13.25 791.04-15.04L791.04-15.04L791.04-15.04Q794.24-15.94 796.48-18.94L796.48-18.94L796.48-18.94Q798.72-21.95 798.72-25.47L798.72-25.47L798.72-25.47Q798.72-28.99 796.22-28.99L796.22-28.99L796.22-28.99Q794.43-28.99 793.02-27.01L793.02-27.01L793.02-27.01Q791.62-25.02 790.98-21.63L790.98-21.63L786.75 0L773.82 1.28L782.78-44.80L795.65-46.08L794.18-38.46L794.18-38.46Q793.22-33.09 791.94-30.34ZM833.22-22.46L833.22-22.46L833.22-22.46Q834.11-24.83 834.11-26.88L834.11-26.88L834.11-26.88Q834.11-30.66 831.04-30.66L831.04-30.66L831.04-30.66Q829.44-30.66 828.13-29.22L828.13-29.22L828.13-29.22Q826.82-27.78 826.82-25.98L826.82-25.98L826.82-25.98Q826.82-24.70 827.84-23.68L827.84-23.68L827.84-23.68Q829.31-22.27 833.09-19.97L833.09-19.97L833.09-19.97Q836.86-17.66 838.30-15.78L838.30-15.78L838.30-15.78Q839.74-13.89 839.74-11.30L839.74-11.30L839.74-11.30Q839.74-8.70 838.50-6.34L838.50-6.34L838.50-6.34Q837.25-3.97 835.01-2.30L835.01-2.30L835.01-2.30Q830.21 1.28 822.53 1.28L822.53 1.28L822.53 1.28Q818.37 1.28 815.17-0.90L815.17-0.90L815.17-0.90Q811.97-3.01 811.97-5.50L811.97-5.50L811.97-5.50Q811.97-8 813.79-9.47L813.79-9.47L813.79-9.47Q815.62-10.94 818.30-10.94L818.30-10.94L818.30-10.94Q820.99-10.94 822.66-9.92L822.66-9.92L822.66-9.92Q821.82-7.81 821.82-6.40L821.82-6.40L821.82-6.40Q821.82-2.18 825.41-2.18L825.41-2.18L825.41-2.18Q826.94-2.18 827.97-3.14L827.97-3.14L827.97-3.14Q828.99-4.10 828.99-5.76L828.99-5.76L828.99-5.76Q828.99-9.02 823.49-12.48L823.49-12.48L823.49-12.48Q819.01-15.42 817.98-16.58L817.98-16.58L817.98-16.58Q816.26-18.62 816.26-21.18L816.26-21.18L816.26-21.18Q816.26-23.74 817.47-26.18L817.47-26.18L817.47-26.18Q818.69-28.61 820.93-30.34L820.93-30.34L820.93-30.34Q825.60-33.92 833.73-33.92L833.73-33.92L833.73-33.92Q837.89-33.92 840.35-32.26L840.35-32.26L840.35-32.26Q842.82-30.59 842.82-27.78L842.82-27.78L842.82-27.78Q842.82-24.96 841.12-23.36L841.12-23.36L841.12-23.36Q839.42-21.76 836.35-21.76L836.35-21.76L836.35-21.76Q834.24-21.76 833.22-22.46Z" fill="url(#editing-gradient-gradient)"/></g></g><style>text {
  font-size: 64px;
  font-family: Arial Black;
  dominant-baseline: central;
  text-anchor: middle;
}</style></svg>