<svg xmlns="http://www.w3.org/2000/svg" style="background: rgba(5, 15, 44, 0);" preserveAspectRatio="xMidYMid" viewBox="47.8 52.12 404.29 47.04"><defs><linearGradient id="editing-gradient-gradient" x1="0" x2="1" y1="0.5" y2="0.5" gradientUnits="objectBoundingBox"><stop offset="0" stop-color="#003666"/><stop offset="1" stop-color="#00aeff"/></linearGradient></defs><g><g transform="translate(48.11766466498375, 98.52000045776367)"><path d="M-0.32 0L16.32-43.33L22.34-43.33L39.04 0L30.91 0L26.94-11.33L11.33-11.33L7.23 0L-0.32 0ZM13.38-16.96L24.96-16.96L24.96-16.96Q22.91-22.72 21.44-27.42L21.44-27.42L21.44-27.42Q19.97-32.13 19.20-34.82L19.20-34.82L19.20-34.82Q18.30-31.94 16.83-27.26L16.83-27.26L16.83-27.26Q15.36-22.59 13.38-16.96L13.38-16.96ZM61.82-16.26L61.82-31.87L69.12-31.87L69.12-15.42L69.12-15.42Q69.12-11.58 69.60-8.99L69.60-8.99L69.60-8.99Q70.08-6.40 70.66-4.80L70.66-4.80L70.66-4.80Q71.36-2.88 72.19-1.79L72.19-1.79L66.50 0.51L66.50 0.51Q65.73-0.19 65.09-1.28L65.09-1.28L65.09-1.28Q64.58-2.18 64.03-3.49L64.03-3.49L64.03-3.49Q63.49-4.80 63.30-6.59L63.30-6.59L63.30-6.59Q61.57-2.82 58.43-1.22L58.43-1.22L58.43-1.22Q55.30 0.38 51.90 0.38L51.90 0.38L51.90 0.38Q46.85 0.38 44.70-2.56L44.70-2.56L44.70-2.56Q42.56-5.50 42.56-10.62L42.56-10.62L42.56-31.87L49.86-31.87L49.86-10.75L49.86-10.75Q49.86-8.06 50.82-6.53L50.82-6.53L50.82-6.53Q51.78-4.99 54.08-4.99L54.08-4.99L54.08-4.99Q55.49-4.99 56.86-5.79L56.86-5.79L56.86-5.79Q58.24-6.59 59.36-8.06L59.36-8.06L59.36-8.06Q60.48-9.54 61.15-11.62L61.15-11.62L61.15-11.62Q61.82-13.70 61.82-16.26L61.82-16.26ZM74.50-26.69L74.50-31.87L80.26-31.87L81.54-39.36L87.55-40.70L87.55-31.87L95.42-31.87L94.53-26.69L87.55-26.69L87.55-7.74L87.55-7.74Q87.55-6.08 88.45-5.60L88.45-5.60L88.45-5.60Q89.34-5.12 90.43-5.12L90.43-5.12L90.43-5.12Q91.33-5.12 92.22-5.25L92.22-5.25L92.22-5.25Q93.12-5.38 93.82-5.57L93.82-5.57L93.82-5.57Q94.66-5.76 95.42-6.02L95.42-6.02L96.64-1.22L96.06-1.02L96.06-1.02Q95.49-0.77 94.37-0.48L94.37-0.48L94.37-0.48Q93.25-0.19 91.74 0.03L91.74 0.03L91.74 0.03Q90.24 0.26 88.45 0.26L88.45 0.26L88.45 0.26Q86.66 0.26 85.15-0.13L85.15-0.13L85.15-0.13Q83.65-0.51 82.56-1.38L82.56-1.38L82.56-1.38Q81.47-2.24 80.86-3.58L80.86-3.58L80.86-3.58Q80.26-4.93 80.26-6.91L80.26-6.91L80.26-26.69L74.50-26.69ZM112.83-32.64L112.83-32.64Q120.19-32.64 123.52-28.29L123.52-28.29L123.52-28.29Q126.85-23.94 126.85-16.32L126.85-16.32L126.85-16.32Q126.85-12.74 125.95-9.63L125.95-9.63L125.95-9.63Q125.06-6.53 123.23-4.26L123.23-4.26L123.23-4.26Q121.41-1.98 118.66-0.67L118.66-0.67L118.66-0.67Q115.90 0.64 112.26 0.64L112.26 0.64L112.26 0.64Q108.61 0.64 105.95-0.48L105.95-0.48L105.95-0.48Q103.30-1.60 101.57-3.71L101.57-3.71L101.57-3.71Q99.84-5.82 99.04-8.83L99.04-8.83L99.04-8.83Q98.24-11.84 98.24-15.62L98.24-15.62L98.24-15.62Q98.24-19.26 99.14-22.37L99.14-22.37L99.14-22.37Q100.03-25.47 101.86-27.74L101.86-27.74L101.86-27.74Q103.68-30.02 106.43-31.33L106.43-31.33L106.43-31.33Q109.18-32.64 112.83-32.64L112.83-32.64ZM112.19-27.26L112.19-27.26Q110.34-27.26 109.15-26.43L109.15-26.43L109.15-26.43Q107.97-25.60 107.30-24.10L107.30-24.10L107.30-24.10Q106.62-22.59 106.37-20.58L106.37-20.58L106.37-20.58Q106.11-18.56 106.11-16.26L106.11-16.26L106.11-16.26Q106.11-13.89 106.40-11.78L106.40-11.78L106.40-11.78Q106.69-9.66 107.46-8.10L107.46-8.10L107.46-8.10Q108.22-6.53 109.54-5.63L109.54-5.63L109.54-5.63Q110.85-4.74 112.90-4.74L112.90-4.74L112.90-4.74Q114.75-4.74 115.94-5.57L115.94-5.57L115.94-5.57Q117.12-6.40 117.79-7.90L117.79-7.90L117.79-7.90Q118.46-9.41 118.72-11.39L118.72-11.39L118.72-11.39Q118.98-13.38 118.98-15.68L118.98-15.68L118.98-15.68Q118.98-18.05 118.69-20.16L118.69-20.16L118.69-20.16Q118.40-22.27 117.63-23.87L117.63-23.87L117.63-23.87Q116.86-25.47 115.55-26.37L115.55-26.37L115.55-26.37Q114.24-27.26 112.19-27.26L112.19-27.26ZM177.02 0L169.79 0L169.79-20.86L169.79-20.86Q169.79-23.55 168.96-25.12L168.96-25.12L168.96-25.12Q168.13-26.69 166.08-26.69L166.08-26.69L166.08-26.69Q164.86-26.69 163.62-26.02L163.62-26.02L163.62-26.02Q162.37-25.34 161.34-24.06L161.34-24.06L161.34-24.06Q160.32-22.78 159.68-20.99L159.68-20.99L159.68-20.99Q159.04-19.20 159.04-17.02L159.04-17.02L159.04 0L151.81 0L151.81-20.86L151.81-20.86Q151.81-23.55 150.98-25.12L150.98-25.12L150.98-25.12Q150.14-26.69 148.10-26.69L148.10-26.69L148.10-26.69Q146.82-26.69 145.57-25.95L145.57-25.95L145.57-25.95Q144.32-25.22 143.33-23.81L143.33-23.81L143.33-23.81Q142.34-22.40 141.73-20.38L141.73-20.38L141.73-20.38Q141.12-18.37 141.12-15.87L141.12-15.87L141.12 0L133.82 0L133.82-16.13L133.82-16.13Q133.82-19.97 133.31-22.56L133.31-22.56L133.31-22.56Q132.80-25.15 132.22-26.75L132.22-26.75L132.22-26.75Q131.52-28.61 130.69-29.76L130.69-29.76L136.45-32.06L136.45-32.06Q137.09-31.36 137.73-30.34L137.73-30.34L137.73-30.34Q138.24-29.44 138.75-28.13L138.75-28.13L138.75-28.13Q139.26-26.82 139.58-25.15L139.58-25.15L139.58-25.15Q141.18-28.99 144.10-30.69L144.10-30.69L144.10-30.69Q147.01-32.38 150.27-32.38L150.27-32.38L150.27-32.38Q153.54-32.38 155.36-30.72L155.36-30.72L155.36-30.72Q157.18-29.06 158.08-26.43L158.08-26.43L158.08-26.43Q159.81-29.63 162.53-31.01L162.53-31.01L162.53-31.01Q165.25-32.38 168.26-32.38L168.26-32.38L168.26-32.38Q170.75-32.38 172.45-31.58L172.45-31.58L172.45-31.58Q174.14-30.78 175.14-29.34L175.14-29.34L175.14-29.34Q176.13-27.90 176.58-25.89L176.58-25.89L176.58-25.89Q177.02-23.87 177.02-21.38L177.02-21.38L177.02 0ZM210.75-30.53L210.75-15.42L210.75-15.42Q210.75-11.58 211.23-8.99L211.23-8.99L211.23-8.99Q211.71-6.40 212.29-4.80L212.29-4.80L212.29-4.80Q212.99-2.88 213.82-1.79L213.82-1.79L208.13 0.51L208.13 0.51Q207.30-0.32 206.59-1.47L206.59-1.47L206.59-1.47Q206.02-2.50 205.50-3.94L205.50-3.94L205.50-3.94Q204.99-5.38 204.86-7.36L204.86-7.36L204.86-7.36Q203.78-3.52 201.38-1.57L201.38-1.57L201.38-1.57Q198.98 0.38 194.88 0.38L194.88 0.38L194.88 0.38Q191.87 0.38 189.66-0.74L189.66-0.74L189.66-0.74Q187.46-1.86 185.98-3.94L185.98-3.94L185.98-3.94Q184.51-6.02 183.81-8.96L183.81-8.96L183.81-8.96Q183.10-11.90 183.10-15.49L183.10-15.49L183.10-15.49Q183.10-19.14 184.22-22.24L184.22-22.24L184.22-22.24Q185.34-25.34 187.36-27.58L187.36-27.58L187.36-27.58Q189.38-29.82 192.19-31.10L192.19-31.10L192.19-31.10Q195.01-32.38 198.40-32.38L198.40-32.38L198.40-32.38Q200.32-32.38 202.40-32.10L202.40-32.10L202.40-32.10Q204.48-31.81 206.27-31.49L206.27-31.49L206.27-31.49Q208.06-31.17 209.31-30.88L209.31-30.88L209.31-30.88Q210.56-30.59 210.75-30.53L210.75-30.53ZM196.10-4.74L196.10-4.74Q197.70-4.74 199.04-5.82L199.04-5.82L199.04-5.82Q200.38-6.91 201.38-8.67L201.38-8.67L201.38-8.67Q202.37-10.43 202.91-12.70L202.91-12.70L202.91-12.70Q203.46-14.98 203.46-17.34L203.46-17.34L203.46-26.56L203.46-26.56Q202.82-26.75 201.54-27.01L201.54-27.01L201.54-27.01Q200.26-27.26 199.23-27.26L199.23-27.26L199.23-27.26Q196.80-27.26 195.23-26.43L195.23-26.43L195.23-26.43Q193.66-25.60 192.70-24.13L192.70-24.13L192.70-24.13Q191.74-22.66 191.36-20.61L191.36-20.61L191.36-20.61Q190.98-18.56 190.98-16.13L190.98-16.13L190.98-16.13Q190.98-13.89 191.10-11.84L191.10-11.84L191.10-11.84Q191.23-9.79 191.78-8.19L191.78-8.19L191.78-8.19Q192.32-6.59 193.34-5.66L193.34-5.66L193.34-5.66Q194.37-4.74 196.10-4.74L196.10-4.74ZM215.81-26.69L215.81-31.87L221.57-31.87L222.85-39.36L228.86-40.70L228.86-31.87L236.74-31.87L235.84-26.69L228.86-26.69L228.86-7.74L228.86-7.74Q228.86-6.08 229.76-5.60L229.76-5.60L229.76-5.60Q230.66-5.12 231.74-5.12L231.74-5.12L231.74-5.12Q232.64-5.12 233.54-5.25L233.54-5.25L233.54-5.25Q234.43-5.38 235.14-5.57L235.14-5.57L235.14-5.57Q235.97-5.76 236.74-6.02L236.74-6.02L237.95-1.22L237.38-1.02L237.38-1.02Q236.80-0.77 235.68-0.48L235.68-0.48L235.68-0.48Q234.56-0.19 233.06 0.03L233.06 0.03L233.06 0.03Q231.55 0.26 229.76 0.26L229.76 0.26L229.76 0.26Q227.97 0.26 226.46-0.13L226.46-0.13L226.46-0.13Q224.96-0.51 223.87-1.38L223.87-1.38L223.87-1.38Q222.78-2.24 222.18-3.58L222.18-3.58L222.18-3.58Q221.57-4.93 221.57-6.91L221.57-6.91L221.57-26.69L215.81-26.69ZM239.55-15.17L239.55-15.17Q239.55-19.46 240.74-22.72L240.74-22.72L240.74-22.72Q241.92-25.98 244.00-28.19L244.00-28.19L244.00-28.19Q246.08-30.40 248.90-31.52L248.90-31.52L248.90-31.52Q251.71-32.64 254.98-32.64L254.98-32.64L254.98-32.64Q257.86-32.64 259.87-31.94L259.87-31.94L259.87-31.94Q261.89-31.23 263.17-30.02L263.17-30.02L263.17-30.02Q264.45-28.80 265.06-27.14L265.06-27.14L265.06-27.14Q265.66-25.47 265.66-23.55L265.66-23.55L265.66-23.55Q265.66-21.25 264.38-19.17L264.38-19.17L264.38-19.17Q263.10-17.09 260.70-15.52L260.70-15.52L260.70-15.52Q258.30-13.95 254.91-13.02L254.91-13.02L254.91-13.02Q251.52-12.10 247.30-12.03L247.30-12.03L247.30-12.03Q247.49-10.56 247.90-9.25L247.90-9.25L247.90-9.25Q248.32-7.94 249.12-6.94L249.12-6.94L249.12-6.94Q249.92-5.95 251.20-5.38L251.20-5.38L251.20-5.38Q252.48-4.80 254.40-4.80L254.40-4.80L254.40-4.80Q255.81-4.80 257.41-5.12L257.41-5.12L257.41-5.12Q259.01-5.44 260.35-5.89L260.35-5.89L260.35-5.89Q261.95-6.40 263.49-7.04L263.49-7.04L265.41-2.50L265.41-2.50Q263.74-1.66 261.82-1.02L261.82-1.02L261.82-1.02Q260.16-0.45 257.98 0L257.98 0L257.98 0Q255.81 0.45 253.38 0.45L253.38 0.45L253.38 0.45Q249.66 0.45 247.04-0.67L247.04-0.67L247.04-0.67Q244.42-1.79 242.75-3.84L242.75-3.84L242.75-3.84Q241.09-5.89 240.32-8.77L240.32-8.77L240.32-8.77Q239.55-11.65 239.55-15.17L239.55-15.17ZM254.40-27.65L254.40-27.65Q252.29-27.65 250.91-26.66L250.91-26.66L250.91-26.66Q249.54-25.66 248.70-24.10L248.70-24.10L248.70-24.10Q247.87-22.53 247.52-20.58L247.52-20.58L247.52-20.58Q247.17-18.62 247.10-16.64L247.10-16.64L247.10-16.64Q250.18-16.77 252.32-17.44L252.32-17.44L252.32-17.44Q254.46-18.11 255.81-19.10L255.81-19.10L255.81-19.10Q257.15-20.10 257.76-21.25L257.76-21.25L257.76-21.25Q258.37-22.40 258.37-23.55L258.37-23.55L258.37-23.55Q258.37-25.41 257.28-26.53L257.28-26.53L257.28-26.53Q256.19-27.65 254.40-27.65L254.40-27.65ZM300.54-1.79L294.85 0.51L294.85 0.51Q294.72 0.45 294.27-0.10L294.27-0.10L294.27-0.10Q293.82-0.64 293.28-1.60L293.28-1.60L293.28-1.60Q292.74-2.56 292.22-4L292.22-4L292.22-4Q291.71-5.44 291.58-7.36L291.58-7.36L291.58-7.36Q290.50-3.52 288.10-1.57L288.10-1.57L288.10-1.57Q285.70 0.38 281.60 0.38L281.60 0.38L281.60 0.38Q278.59 0.38 276.38-0.74L276.38-0.74L276.38-0.74Q274.18-1.86 272.70-3.94L272.70-3.94L272.70-3.94Q271.23-6.02 270.53-8.96L270.53-8.96L270.53-8.96Q269.82-11.90 269.82-15.49L269.82-15.49L269.82-15.49Q269.82-19.14 270.94-22.24L270.94-22.24L270.94-22.24Q272.06-25.34 274.08-27.58L274.08-27.58L274.08-27.58Q276.10-29.82 278.91-31.10L278.91-31.10L278.91-31.10Q281.73-32.38 285.12-32.38L285.12-32.38L285.12-32.38Q286.27-32.38 287.58-32.26L287.58-32.26L287.58-32.26Q288.90-32.13 290.18-31.94L290.18-31.94L290.18-46.40L297.47-45.12L297.47-15.42L297.47-15.42Q297.47-11.58 297.92-9.06L297.92-9.06L297.92-9.06Q298.37-6.53 298.94-4.96L298.94-4.96L298.94-4.96Q299.52-3.39 300-2.69L300-2.69L300-2.69Q300.48-1.98 300.54-1.79L300.54-1.79ZM282.82-4.80L282.82-4.80Q284.42-4.80 285.76-5.89L285.76-5.89L285.76-5.89Q287.10-6.98 288.10-8.74L288.10-8.74L288.10-8.74Q289.09-10.50 289.63-12.74L289.63-12.74L289.63-12.74Q290.18-14.98 290.18-17.34L290.18-17.34L290.18-26.56L290.18-26.56Q289.54-26.75 288.26-27.01L288.26-27.01L288.26-27.01Q286.98-27.26 285.95-27.26L285.95-27.26L285.95-27.26Q283.52-27.26 281.95-26.43L281.95-26.43L281.95-26.43Q280.38-25.60 279.42-24.13L279.42-24.13L279.42-24.13Q278.46-22.66 278.08-20.61L278.08-20.61L278.08-20.61Q277.70-18.56 277.70-16.13L277.70-16.13L277.70-16.13Q277.70-13.89 277.82-11.84L277.82-11.84L277.82-11.84Q277.95-9.79 278.50-8.22L278.50-8.22L278.50-8.22Q279.04-6.66 280.06-5.73L280.06-5.73L280.06-5.73Q281.09-4.80 282.82-4.80L282.82-4.80ZM317.89 0L334.53-43.33L340.54-43.33L357.25 0L349.12 0L345.15-11.33L329.54-11.33L325.44 0L317.89 0ZM331.58-16.96L343.17-16.96L343.17-16.96Q341.12-22.72 339.65-27.42L339.65-27.42L339.65-27.42Q338.18-32.13 337.41-34.82L337.41-34.82L337.41-34.82Q336.51-31.94 335.04-27.26L335.04-27.26L335.04-27.26Q333.57-22.59 331.58-16.96L331.58-16.96ZM375.36-25.22L375.36-25.22Q374.21-25.22 373.06-24.64L373.06-24.64L373.06-24.64Q371.90-24.06 371.01-23.07L371.01-23.07L371.01-23.07Q370.11-22.08 369.54-20.67L369.54-20.67L369.54-20.67Q368.96-19.26 368.96-17.54L368.96-17.54L368.96 0L361.66 0L361.66-16.13L361.66-16.13Q361.66-19.97 361.15-22.56L361.15-22.56L361.15-22.56Q360.64-25.15 360.06-26.75L360.06-26.75L360.06-26.75Q359.36-28.61 358.53-29.76L358.53-29.76L364.29-32.06L364.29-32.06Q364.86-31.36 365.50-30.34L365.50-30.34L365.50-30.34Q366.02-29.44 366.53-28.22L366.53-28.22L366.53-28.22Q367.04-27.01 367.36-25.34L367.36-25.34L367.36-25.34Q368.64-29.06 371.07-30.69L371.07-30.69L371.07-30.69Q373.50-32.32 376.58-32.32L376.58-32.32L376.58-32.32Q378.05-32.32 379.33-31.97L379.33-31.97L379.33-31.97Q380.61-31.62 380.54-31.62L380.54-31.62L378.50-24.51L378.50-24.51Q378.56-24.51 377.76-24.86L377.76-24.86L377.76-24.86Q376.96-25.22 375.36-25.22L375.36-25.22ZM381.82-26.69L381.82-31.87L387.58-31.87L388.86-39.36L394.88-40.70L394.88-31.87L402.75-31.87L401.86-26.69L394.88-26.69L394.88-7.74L394.88-7.74Q394.88-6.08 395.78-5.60L395.78-5.60L395.78-5.60Q396.67-5.12 397.76-5.12L397.76-5.12L397.76-5.12Q398.66-5.12 399.55-5.25L399.55-5.25L399.55-5.25Q400.45-5.38 401.15-5.57L401.15-5.57L401.15-5.57Q401.98-5.76 402.75-6.02L402.75-6.02L403.97-1.22L403.39-1.02L403.39-1.02Q402.82-0.77 401.70-0.48L401.70-0.48L401.70-0.48Q400.58-0.19 399.07 0.03L399.07 0.03L399.07 0.03Q397.57 0.26 395.78 0.26L395.78 0.26L395.78 0.26Q393.98 0.26 392.48-0.13L392.48-0.13L392.48-0.13Q390.98-0.51 389.89-1.38L389.89-1.38L389.89-1.38Q388.80-2.24 388.19-3.58L388.19-3.58L388.19-3.58Q387.58-4.93 387.58-6.91L387.58-6.91L387.58-26.69L381.82-26.69Z" fill="url(#editing-gradient-gradient)"/></g></g><style>text {
  font-size: 64px;
  font-family: Arial Black;
  dominant-baseline: central;
  text-anchor: middle;
}</style></svg>