<svg xmlns="http://www.w3.org/2000/svg" style="background: rgba(5, 15, 44, 0);" preserveAspectRatio="xMidYMid" viewBox="33.65 58.91 432.7 59.97"><defs><linearGradient id="editing-gradient-gradient" x1="0.00759612349389599" x2="0.9924038765061041" y1="0.41317591116653485" y2="0.5868240888334652" gradientUnits="objectBoundingBox"><stop offset="0" stop-color="#b84592"/><stop offset="1" stop-color="#00aeff"/></linearGradient></defs><g><g transform="translate(29.170003414154053, 104.98500061035156)"><path d="M4.48 0L4.48-43.33L4.48-43.33Q4.93-43.33 6.40-43.36L6.40-43.36L6.40-43.36Q7.87-43.39 9.73-43.39L9.73-43.39L9.73-43.39Q11.58-43.39 13.57-43.42L13.57-43.42L13.57-43.42Q15.55-43.46 17.02-43.46L17.02-43.46L17.02-43.46Q27.90-43.46 33.15-38.05L33.15-38.05L33.15-38.05Q38.40-32.64 38.40-21.95L38.40-21.95L38.40-21.95Q38.40-11.26 33.02-5.57L33.02-5.57L33.02-5.57Q27.65 0.13 16.19 0.13L16.19 0.13L16.19 0.13Q14.21 0.13 12.32 0.10L12.32 0.10L12.32 0.10Q10.43 0.06 8.86 0.06L8.86 0.06L8.86 0.06Q7.30 0.06 6.14 0.03L6.14 0.03L6.14 0.03Q4.99 0 4.48 0L4.48 0ZM16.13-37.76L16.13-37.76Q14.66-37.76 13.66-37.73L13.66-37.73L13.66-37.73Q12.67-37.70 12.10-37.70L12.10-37.70L12.10-5.63L12.10-5.63Q12.80-5.57 13.92-5.57L13.92-5.57L13.92-5.57Q15.04-5.57 17.15-5.57L17.15-5.57L17.15-5.57Q23.87-5.57 27.01-9.50L27.01-9.50L27.01-9.50Q30.14-13.44 30.14-21.25L30.14-21.25L30.14-21.25Q30.14-24.96 29.41-28L29.41-28L29.41-28Q28.67-31.04 26.98-33.22L26.98-33.22L26.98-33.22Q25.28-35.39 22.62-36.58L22.62-36.58L22.62-36.58Q19.97-37.76 16.13-37.76L16.13-37.76ZM71.68-31.87L71.36-12.93L71.36-12.93Q71.36-11.01 71.65-9.41L71.65-9.41L71.65-9.41Q71.94-7.81 72.29-6.24L72.29-6.24L72.29-6.24Q72.64-4.67 72.96-3.07L72.96-3.07L72.96-3.07Q73.28-1.47 73.28 0.45L73.28 0.45L73.28 0.45Q73.28 7.23 69.82 10.56L69.82 10.56L69.82 10.56Q66.37 13.89 60.48 13.89L60.48 13.89L60.48 13.89Q58.56 13.89 56.64 13.54L56.64 13.54L56.64 13.54Q54.72 13.18 53.09 12.74L53.09 12.74L53.09 12.74Q51.46 12.29 50.30 11.84L50.30 11.84L50.30 11.84Q49.15 11.39 48.77 11.20L48.77 11.20L50.56 5.63L50.56 5.63Q51.46 6.02 52.58 6.43L52.58 6.43L52.58 6.43Q53.70 6.85 54.88 7.23L54.88 7.23L54.88 7.23Q56.06 7.62 57.34 7.87L57.34 7.87L57.34 7.87Q58.62 8.13 59.84 8.13L59.84 8.13L59.84 8.13Q63.42 8.13 65.02 5.98L65.02 5.98L65.02 5.98Q66.62 3.84 66.62 0.45L66.62 0.45L66.62 0.45Q66.62-2.62 65.34-5.89L65.34-5.89L65.34-5.89Q63.55-2.50 60.58-1.06L60.58-1.06L60.58-1.06Q57.60 0.38 54.34 0.38L54.34 0.38L54.34 0.38Q49.28 0.38 47.14-2.56L47.14-2.56L47.14-2.56Q44.99-5.50 44.99-10.62L44.99-10.62L44.99-31.87L52.29-31.87L52.29-10.82L52.29-10.82Q52.29-8.13 53.25-6.59L53.25-6.59L53.25-6.59Q54.21-5.06 56.51-5.06L56.51-5.06L56.51-5.06Q57.73-5.06 59.10-5.76L59.10-5.76L59.10-5.76Q60.48-6.46 61.60-7.71L61.60-7.71L61.60-7.71Q62.72-8.96 63.46-10.72L63.46-10.72L63.46-10.72Q64.19-12.48 64.19-14.53L64.19-14.53L64.19-31.87L71.68-31.87ZM106.50 0L99.26 0L99.26-20.67L99.26-20.67Q99.26-23.36 98.30-24.99L98.30-24.99L98.30-24.99Q97.34-26.62 95.04-26.62L95.04-26.62L95.04-26.62Q93.57-26.62 92.19-25.89L92.19-25.89L92.19-25.89Q90.82-25.15 89.73-23.74L89.73-23.74L89.73-23.74Q88.64-22.34 87.97-20.32L87.97-20.32L87.97-20.32Q87.30-18.30 87.30-15.81L87.30-15.81L87.30 0L80.00 0L80.00-16.13L80.00-16.13Q80.00-19.97 79.49-22.56L79.49-22.56L79.49-22.56Q78.98-25.15 78.40-26.75L78.40-26.75L78.40-26.75Q77.70-28.61 76.86-29.76L76.86-29.76L82.62-32.06L82.62-32.06Q83.26-31.36 83.90-30.34L83.90-30.34L83.90-30.34Q84.42-29.44 84.93-28.13L84.93-28.13L84.93-28.13Q85.44-26.82 85.76-25.15L85.76-25.15L85.76-25.15Q87.42-28.99 90.56-30.69L90.56-30.69L90.56-30.69Q93.70-32.38 97.15-32.38L97.15-32.38L97.15-32.38Q102.08-32.38 104.29-29.41L104.29-29.41L104.29-29.41Q106.50-26.43 106.50-21.38L106.50-21.38L106.50 0ZM140.29-30.53L140.29-15.42L140.29-15.42Q140.29-11.58 140.77-8.99L140.77-8.99L140.77-8.99Q141.25-6.40 141.82-4.80L141.82-4.80L141.82-4.80Q142.53-2.88 143.36-1.79L143.36-1.79L137.66 0.51L137.66 0.51Q136.83-0.32 136.13-1.47L136.13-1.47L136.13-1.47Q135.55-2.50 135.04-3.94L135.04-3.94L135.04-3.94Q134.53-5.38 134.40-7.36L134.40-7.36L134.40-7.36Q133.31-3.52 130.91-1.57L130.91-1.57L130.91-1.57Q128.51 0.38 124.42 0.38L124.42 0.38L124.42 0.38Q121.41 0.38 119.20-0.74L119.20-0.74L119.20-0.74Q116.99-1.86 115.52-3.94L115.52-3.94L115.52-3.94Q114.05-6.02 113.34-8.96L113.34-8.96L113.34-8.96Q112.64-11.90 112.64-15.49L112.64-15.49L112.64-15.49Q112.64-19.14 113.76-22.24L113.76-22.24L113.76-22.24Q114.88-25.34 116.90-27.58L116.90-27.58L116.90-27.58Q118.91-29.82 121.73-31.10L121.73-31.10L121.73-31.10Q124.54-32.38 127.94-32.38L127.94-32.38L127.94-32.38Q129.86-32.38 131.94-32.10L131.94-32.10L131.94-32.10Q134.02-31.81 135.81-31.49L135.81-31.49L135.81-31.49Q137.60-31.17 138.85-30.88L138.85-30.88L138.85-30.88Q140.10-30.59 140.29-30.53L140.29-30.53ZM125.63-4.74L125.63-4.74Q127.23-4.74 128.58-5.82L128.58-5.82L128.58-5.82Q129.92-6.91 130.91-8.67L130.91-8.67L130.91-8.67Q131.90-10.43 132.45-12.70L132.45-12.70L132.45-12.70Q132.99-14.98 132.99-17.34L132.99-17.34L132.99-26.56L132.99-26.56Q132.35-26.75 131.07-27.01L131.07-27.01L131.07-27.01Q129.79-27.26 128.77-27.26L128.77-27.26L128.77-27.26Q126.34-27.26 124.77-26.43L124.77-26.43L124.77-26.43Q123.20-25.60 122.24-24.13L122.24-24.13L122.24-24.13Q121.28-22.66 120.90-20.61L120.90-20.61L120.90-20.61Q120.51-18.56 120.51-16.13L120.51-16.13L120.51-16.13Q120.51-13.89 120.64-11.84L120.64-11.84L120.64-11.84Q120.77-9.79 121.31-8.19L121.31-8.19L121.31-8.19Q121.86-6.59 122.88-5.66L122.88-5.66L122.88-5.66Q123.90-4.74 125.63-4.74L125.63-4.74ZM191.36 0L184.13 0L184.13-20.86L184.13-20.86Q184.13-23.55 183.30-25.12L183.30-25.12L183.30-25.12Q182.46-26.69 180.42-26.69L180.42-26.69L180.42-26.69Q179.20-26.69 177.95-26.02L177.95-26.02L177.95-26.02Q176.70-25.34 175.68-24.06L175.68-24.06L175.68-24.06Q174.66-22.78 174.02-20.99L174.02-20.99L174.02-20.99Q173.38-19.20 173.38-17.02L173.38-17.02L173.38 0L166.14 0L166.14-20.86L166.14-20.86Q166.14-23.55 165.31-25.12L165.31-25.12L165.31-25.12Q164.48-26.69 162.43-26.69L162.43-26.69L162.43-26.69Q161.15-26.69 159.90-25.95L159.90-25.95L159.90-25.95Q158.66-25.22 157.66-23.81L157.66-23.81L157.66-23.81Q156.67-22.40 156.06-20.38L156.06-20.38L156.06-20.38Q155.46-18.37 155.46-15.87L155.46-15.87L155.46 0L148.16 0L148.16-16.13L148.16-16.13Q148.16-19.97 147.65-22.56L147.65-22.56L147.65-22.56Q147.14-25.15 146.56-26.75L146.56-26.75L146.56-26.75Q145.86-28.61 145.02-29.76L145.02-29.76L150.78-32.06L150.78-32.06Q151.42-31.36 152.06-30.34L152.06-30.34L152.06-30.34Q152.58-29.44 153.09-28.13L153.09-28.13L153.09-28.13Q153.60-26.82 153.92-25.15L153.92-25.15L153.92-25.15Q155.52-28.99 158.43-30.69L158.43-30.69L158.43-30.69Q161.34-32.38 164.61-32.38L164.61-32.38L164.61-32.38Q167.87-32.38 169.70-30.72L169.70-30.72L169.70-30.72Q171.52-29.06 172.42-26.43L172.42-26.43L172.42-26.43Q174.14-29.63 176.86-31.01L176.86-31.01L176.86-31.01Q179.58-32.38 182.59-32.38L182.59-32.38L182.59-32.38Q185.09-32.38 186.78-31.58L186.78-31.58L186.78-31.58Q188.48-30.78 189.47-29.34L189.47-29.34L189.47-29.34Q190.46-27.90 190.91-25.89L190.91-25.89L190.91-25.89Q191.36-23.87 191.36-21.38L191.36-21.38L191.36 0ZM206.08 0.26L206.08 0.26Q202.69 0.26 200.90-1.76L200.90-1.76L200.90-1.76Q199.10-3.78 199.10-6.98L199.10-6.98L199.10-31.87L206.40-31.87L206.40-7.62L206.40-7.62Q206.40-6.14 206.85-5.63L206.85-5.63L206.85-5.63Q207.30-5.12 208.19-5.12L208.19-5.12L208.19-5.12Q208.45-5.12 208.74-5.12L208.74-5.12L208.74-5.12Q209.02-5.12 209.28-5.18L209.28-5.18L209.28-5.18Q209.54-5.18 209.86-5.25L209.86-5.25L210.62-0.64L210.62-0.64Q210.18-0.38 209.47-0.19L209.47-0.19L209.47-0.19Q208.90 0 208.03 0.13L208.03 0.13L208.03 0.13Q207.17 0.26 206.08 0.26L206.08 0.26ZM202.88-46.08L202.88-46.08Q204.93-46.08 206.02-44.86L206.02-44.86L206.02-44.86Q207.10-43.65 207.10-41.73L207.10-41.73L207.10-41.73Q207.10-39.81 205.98-38.53L205.98-38.53L205.98-38.53Q204.86-37.25 202.69-37.25L202.69-37.25L202.69-37.25Q200.64-37.25 199.52-38.50L199.52-38.50L199.52-38.50Q198.40-39.74 198.40-41.54L198.40-41.54L198.40-41.54Q198.40-43.52 199.52-44.80L199.52-44.80L199.52-44.80Q200.64-46.08 202.88-46.08L202.88-46.08ZM237.12-28.29L233.02-24.38L233.02-24.38Q232.06-25.47 231.07-26.24L231.07-26.24L231.07-26.24Q230.08-27.01 228.42-27.01L228.42-27.01L228.42-27.01Q227.46-27.01 226.27-26.72L226.27-26.72L226.27-26.72Q225.09-26.43 224.06-25.31L224.06-25.31L224.06-25.31Q223.04-24.19 222.37-22.02L222.37-22.02L222.37-22.02Q221.70-19.84 221.70-16.13L221.70-16.13L221.70-16.13Q221.70-12.35 222.37-10.14L222.37-10.14L222.37-10.14Q223.04-7.94 224.10-6.72L224.10-6.72L224.10-6.72Q225.15-5.50 226.37-5.15L226.37-5.15L226.37-5.15Q227.58-4.80 228.74-4.80L228.74-4.80L228.74-4.80Q229.63-4.80 230.59-4.96L230.59-4.96L230.59-4.96Q231.55-5.12 232.45-5.34L232.45-5.34L232.45-5.34Q233.34-5.57 234.02-5.76L234.02-5.76L234.02-5.76Q234.69-5.95 235.01-6.08L235.01-6.08L236.80-1.47L236.80-1.47Q236.61-1.41 235.94-1.09L235.94-1.09L235.94-1.09Q235.26-0.77 234.11-0.45L234.11-0.45L234.11-0.45Q232.96-0.13 231.36 0.16L231.36 0.16L231.36 0.16Q229.76 0.45 227.78 0.45L227.78 0.45L227.78 0.45Q224.06 0.45 221.44-0.67L221.44-0.67L221.44-0.67Q218.82-1.79 217.12-3.84L217.12-3.84L217.12-3.84Q215.42-5.89 214.62-8.77L214.62-8.77L214.62-8.77Q213.82-11.65 213.82-15.17L213.82-15.17L213.82-15.17Q213.82-19.39 214.94-22.66L214.94-22.66L214.94-22.66Q216.06-25.92 218.05-28.13L218.05-28.13L218.05-28.13Q220.03-30.34 222.72-31.49L222.72-31.49L222.72-31.49Q225.41-32.64 228.48-32.64L228.48-32.64L228.48-32.64Q231.49-32.64 233.57-31.49L233.57-31.49L233.57-31.49Q235.65-30.34 237.12-28.29L237.12-28.29ZM258.62 0L258.62-43.33L258.62-43.33Q259.07-43.33 260.67-43.36L260.67-43.36L260.67-43.36Q262.27-43.39 264.26-43.39L264.26-43.39L264.26-43.39Q266.24-43.39 268.22-43.42L268.22-43.42L268.22-43.42Q270.21-43.46 271.49-43.46L271.49-43.46L271.49-43.46Q279.30-43.46 283.01-39.97L283.01-39.97L283.01-39.97Q286.72-36.48 286.72-30.40L286.72-30.40L286.72-30.40Q286.72-27.46 285.70-24.99L285.70-24.99L285.70-24.99Q284.67-22.53 282.66-20.74L282.66-20.74L282.66-20.74Q280.64-18.94 277.66-17.95L277.66-17.95L277.66-17.95Q274.69-16.96 270.72-16.96L270.72-16.96L266.24-16.96L266.24 0L258.62 0ZM266.24-37.95L266.24-22.66L271.17-22.66L271.17-22.66Q275.20-22.66 276.93-24.77L276.93-24.77L276.93-24.77Q278.66-26.88 278.66-30.14L278.66-30.14L278.66-30.14Q278.66-31.62 278.27-33.02L278.27-33.02L278.27-33.02Q277.89-34.43 276.96-35.55L276.96-35.55L276.96-35.55Q276.03-36.67 274.46-37.34L274.46-37.34L274.46-37.34Q272.90-38.02 270.53-38.02L270.53-38.02L270.53-38.02Q269.12-38.02 268.06-38.02L268.06-38.02L268.06-38.02Q267.01-38.02 266.24-37.95L266.24-37.95ZM306.18-25.22L306.18-25.22Q305.02-25.22 303.87-24.64L303.87-24.64L303.87-24.64Q302.72-24.06 301.82-23.07L301.82-23.07L301.82-23.07Q300.93-22.08 300.35-20.67L300.35-20.67L300.35-20.67Q299.78-19.26 299.78-17.54L299.78-17.54L299.78 0L292.48 0L292.48-16.13L292.48-16.13Q292.48-19.97 291.97-22.56L291.97-22.56L291.97-22.56Q291.46-25.15 290.88-26.75L290.88-26.75L290.88-26.75Q290.18-28.61 289.34-29.76L289.34-29.76L295.10-32.06L295.10-32.06Q295.68-31.36 296.32-30.34L296.32-30.34L296.32-30.34Q296.83-29.44 297.34-28.22L297.34-28.22L297.34-28.22Q297.86-27.01 298.18-25.34L298.18-25.34L298.18-25.34Q299.46-29.06 301.89-30.69L301.89-30.69L301.89-30.69Q304.32-32.32 307.39-32.32L307.39-32.32L307.39-32.32Q308.86-32.32 310.14-31.97L310.14-31.97L310.14-31.97Q311.42-31.62 311.36-31.62L311.36-31.62L309.31-24.51L309.31-24.51Q309.38-24.51 308.58-24.86L308.58-24.86L308.58-24.86Q307.78-25.22 306.18-25.22L306.18-25.22ZM322.24 0.26L322.24 0.26Q318.85 0.26 317.06-1.76L317.06-1.76L317.06-1.76Q315.26-3.78 315.26-6.98L315.26-6.98L315.26-31.87L322.56-31.87L322.56-7.62L322.56-7.62Q322.56-6.14 323.01-5.63L323.01-5.63L323.01-5.63Q323.46-5.12 324.35-5.12L324.35-5.12L324.35-5.12Q324.61-5.12 324.90-5.12L324.90-5.12L324.90-5.12Q325.18-5.12 325.44-5.18L325.44-5.18L325.44-5.18Q325.70-5.18 326.02-5.25L326.02-5.25L326.78-0.64L326.78-0.64Q326.34-0.38 325.63-0.19L325.63-0.19L325.63-0.19Q325.06 0 324.19 0.13L324.19 0.13L324.19 0.13Q323.33 0.26 322.24 0.26L322.24 0.26ZM319.04-46.08L319.04-46.08Q321.09-46.08 322.18-44.86L322.18-44.86L322.18-44.86Q323.26-43.65 323.26-41.73L323.26-41.73L323.26-41.73Q323.26-39.81 322.14-38.53L322.14-38.53L322.14-38.53Q321.02-37.25 318.85-37.25L318.85-37.25L318.85-37.25Q316.80-37.25 315.68-38.50L315.68-38.50L315.68-38.50Q314.56-39.74 314.56-41.54L314.56-41.54L314.56-41.54Q314.56-43.52 315.68-44.80L315.68-44.80L315.68-44.80Q316.80-46.08 319.04-46.08L319.04-46.08ZM353.28-28.29L349.18-24.38L349.18-24.38Q348.22-25.47 347.23-26.24L347.23-26.24L347.23-26.24Q346.24-27.01 344.58-27.01L344.58-27.01L344.58-27.01Q343.62-27.01 342.43-26.72L342.43-26.72L342.43-26.72Q341.25-26.43 340.22-25.31L340.22-25.31L340.22-25.31Q339.20-24.19 338.53-22.02L338.53-22.02L338.53-22.02Q337.86-19.84 337.86-16.13L337.86-16.13L337.86-16.13Q337.86-12.35 338.53-10.14L338.53-10.14L338.53-10.14Q339.20-7.94 340.26-6.72L340.26-6.72L340.26-6.72Q341.31-5.50 342.53-5.15L342.53-5.15L342.53-5.15Q343.74-4.80 344.90-4.80L344.90-4.80L344.90-4.80Q345.79-4.80 346.75-4.96L346.75-4.96L346.75-4.96Q347.71-5.12 348.61-5.34L348.61-5.34L348.61-5.34Q349.50-5.57 350.18-5.76L350.18-5.76L350.18-5.76Q350.85-5.95 351.17-6.08L351.17-6.08L352.96-1.47L352.96-1.47Q352.77-1.41 352.10-1.09L352.10-1.09L352.10-1.09Q351.42-0.77 350.27-0.45L350.27-0.45L350.27-0.45Q349.12-0.13 347.52 0.16L347.52 0.16L347.52 0.16Q345.92 0.45 343.94 0.45L343.94 0.45L343.94 0.45Q340.22 0.45 337.60-0.67L337.60-0.67L337.60-0.67Q334.98-1.79 333.28-3.84L333.28-3.84L333.28-3.84Q331.58-5.89 330.78-8.77L330.78-8.77L330.78-8.77Q329.98-11.65 329.98-15.17L329.98-15.17L329.98-15.17Q329.98-19.39 331.10-22.66L331.10-22.66L331.10-22.66Q332.22-25.92 334.21-28.13L334.21-28.13L334.21-28.13Q336.19-30.34 338.88-31.49L338.88-31.49L338.88-31.49Q341.57-32.64 344.64-32.64L344.64-32.64L344.64-32.64Q347.65-32.64 349.73-31.49L349.73-31.49L349.73-31.49Q351.81-30.34 353.28-28.29L353.28-28.29ZM364.86 0.26L364.86 0.26Q361.47 0.26 359.68-1.76L359.68-1.76L359.68-1.76Q357.89-3.78 357.89-6.98L357.89-6.98L357.89-31.87L365.18-31.87L365.18-7.62L365.18-7.62Q365.18-6.14 365.63-5.63L365.63-5.63L365.63-5.63Q366.08-5.12 366.98-5.12L366.98-5.12L366.98-5.12Q367.23-5.12 367.52-5.12L367.52-5.12L367.52-5.12Q367.81-5.12 368.06-5.18L368.06-5.18L368.06-5.18Q368.32-5.18 368.64-5.25L368.64-5.25L369.41-0.64L369.41-0.64Q368.96-0.38 368.26-0.19L368.26-0.19L368.26-0.19Q367.68 0 366.82 0.13L366.82 0.13L366.82 0.13Q365.95 0.26 364.86 0.26L364.86 0.26ZM361.66-46.08L361.66-46.08Q363.71-46.08 364.80-44.86L364.80-44.86L364.80-44.86Q365.89-43.65 365.89-41.73L365.89-41.73L365.89-41.73Q365.89-39.81 364.77-38.53L364.77-38.53L364.77-38.53Q363.65-37.25 361.47-37.25L361.47-37.25L361.47-37.25Q359.42-37.25 358.30-38.50L358.30-38.50L358.30-38.50Q357.18-39.74 357.18-41.54L357.18-41.54L357.18-41.54Q357.18-43.52 358.30-44.80L358.30-44.80L358.30-44.80Q359.42-46.08 361.66-46.08L361.66-46.08ZM401.60 0L394.37 0L394.37-20.67L394.37-20.67Q394.37-23.36 393.41-24.99L393.41-24.99L393.41-24.99Q392.45-26.62 390.14-26.62L390.14-26.62L390.14-26.62Q388.67-26.62 387.30-25.89L387.30-25.89L387.30-25.89Q385.92-25.15 384.83-23.74L384.83-23.74L384.83-23.74Q383.74-22.34 383.07-20.32L383.07-20.32L383.07-20.32Q382.40-18.30 382.40-15.81L382.40-15.81L382.40 0L375.10 0L375.10-16.13L375.10-16.13Q375.10-19.97 374.59-22.56L374.59-22.56L374.59-22.56Q374.08-25.15 373.50-26.75L373.50-26.75L373.50-26.75Q372.80-28.61 371.97-29.76L371.97-29.76L377.73-32.06L377.73-32.06Q378.37-31.36 379.01-30.34L379.01-30.34L379.01-30.34Q379.52-29.44 380.03-28.13L380.03-28.13L380.03-28.13Q380.54-26.82 380.86-25.15L380.86-25.15L380.86-25.15Q382.53-28.99 385.66-30.69L385.66-30.69L385.66-30.69Q388.80-32.38 392.26-32.38L392.26-32.38L392.26-32.38Q397.18-32.38 399.39-29.41L399.39-29.41L399.39-29.41Q401.60-26.43 401.60-21.38L401.60-21.38L401.60 0ZM412.67 11.20L414.46 5.63L414.46 5.63Q415.42 6.02 416.51 6.43L416.51 6.43L416.51 6.43Q417.60 6.85 418.82 7.23L418.82 7.23L418.82 7.23Q420.03 7.62 421.28 7.87L421.28 7.87L421.28 7.87Q422.53 8.13 423.74 8.13L423.74 8.13L423.74 8.13Q427.33 8.13 428.93 5.98L428.93 5.98L428.93 5.98Q430.53 3.84 430.53 0.45L430.53 0.45L430.53 0.45Q430.53-2.88 429.12-6.27L429.12-6.27L429.12-6.27Q428.03-3.01 425.70-1.31L425.70-1.31L425.70-1.31Q423.36 0.38 419.52 0.38L419.52 0.38L419.52 0.38Q416.51 0.38 414.30-0.74L414.30-0.74L414.30-0.74Q412.10-1.86 410.62-3.94L410.62-3.94L410.62-3.94Q409.15-6.02 408.45-8.96L408.45-8.96L408.45-8.96Q407.74-11.90 407.74-15.49L407.74-15.49L407.74-15.49Q407.74-19.14 408.86-22.24L408.86-22.24L408.86-22.24Q409.98-25.34 412.00-27.58L412.00-27.58L412.00-27.58Q414.02-29.82 416.83-31.10L416.83-31.10L416.83-31.10Q419.65-32.38 423.04-32.38L423.04-32.38L423.04-32.38Q424.58-32.38 426.34-32.19L426.34-32.19L426.34-32.19Q428.10-32 429.79-31.71L429.79-31.71L429.79-31.71Q431.49-31.42 432.99-31.10L432.99-31.10L432.99-31.10Q434.50-30.78 435.58-30.53L435.58-30.53L435.26-12.93L435.26-12.93Q435.20-11.01 435.49-9.41L435.49-9.41L435.49-9.41Q435.78-7.81 436.16-6.24L436.16-6.24L436.16-6.24Q436.54-4.67 436.86-3.07L436.86-3.07L436.86-3.07Q437.18-1.47 437.18 0.45L437.18 0.45L437.18 0.45Q437.18 7.23 433.73 10.56L433.73 10.56L433.73 10.56Q430.27 13.89 424.38 13.89L424.38 13.89L424.38 13.89Q422.46 13.89 420.54 13.54L420.54 13.54L420.54 13.54Q418.62 13.18 416.99 12.74L416.99 12.74L416.99 12.74Q415.36 12.29 414.21 11.84L414.21 11.84L414.21 11.84Q413.06 11.39 412.67 11.20L412.67 11.20ZM420.74-4.74L420.74-4.74Q422.27-4.74 423.58-5.76L423.58-5.76L423.58-5.76Q424.90-6.78 425.92-8.48L425.92-8.48L425.92-8.48Q426.94-10.18 427.52-12.35L427.52-12.35L427.52-12.35Q428.10-14.53 428.10-16.83L428.10-16.83L428.10-26.56L428.10-26.56Q427.46-26.75 426.18-27.01L426.18-27.01L426.18-27.01Q424.90-27.26 423.87-27.26L423.87-27.26L423.87-27.26Q421.44-27.26 419.87-26.43L419.87-26.43L419.87-26.43Q418.30-25.60 417.34-24.13L417.34-24.13L417.34-24.13Q416.38-22.66 416.00-20.61L416.00-20.61L416.00-20.61Q415.62-18.56 415.62-16.13L415.62-16.13L415.62-16.13Q415.62-13.89 415.74-11.84L415.74-11.84L415.74-11.84Q415.87-9.79 416.42-8.19L416.42-8.19L416.42-8.19Q416.96-6.59 417.98-5.66L417.98-5.66L417.98-5.66Q419.01-4.74 420.74-4.74L420.74-4.74Z" fill="url(#editing-gradient-gradient)"/></g></g><style>text {
  font-size: 64px;
  font-family: Arial Black;
  dominant-baseline: central;
  text-anchor: middle;
}</style></svg>