<svg xmlns="http://www.w3.org/2000/svg" style="background: rgba(5, 15, 44, 0);" preserveAspectRatio="xMidYMid" viewBox="35.15 58.84 429.7 60.6"><defs><linearGradient id="editing-gradient-gradient" x1="0.00759612349389599" x2="0.9924038765061041" y1="0.41317591116653485" y2="0.5868240888334652" gradientUnits="objectBoundingBox"><stop offset="0" stop-color="#ff6c5f"/><stop offset="1" stop-color="#8e43e7"/></linearGradient></defs><g><g transform="translate(30.669999599456787, 105.29999923706055)"><path d="M4.48 0L4.48-43.33L12.10-43.33L12.10-5.76L28.29-5.76L28.29 0L4.48 0ZM43.84-32.64L43.84-32.64Q51.20-32.64 54.53-28.29L54.53-28.29L54.53-28.29Q57.86-23.94 57.86-16.32L57.86-16.32L57.86-16.32Q57.86-12.74 56.96-9.63L56.96-9.63L56.96-9.63Q56.06-6.53 54.24-4.26L54.24-4.26L54.24-4.26Q52.42-1.98 49.66-0.67L49.66-0.67L49.66-0.67Q46.91 0.64 43.26 0.64L43.26 0.64L43.26 0.64Q39.62 0.64 36.96-0.48L36.96-0.48L36.96-0.48Q34.30-1.60 32.58-3.71L32.58-3.71L32.58-3.71Q30.85-5.82 30.05-8.83L30.05-8.83L30.05-8.83Q29.25-11.84 29.25-15.62L29.25-15.62L29.25-15.62Q29.25-19.26 30.14-22.37L30.14-22.37L30.14-22.37Q31.04-25.47 32.86-27.74L32.86-27.74L32.86-27.74Q34.69-30.02 37.44-31.33L37.44-31.33L37.44-31.33Q40.19-32.64 43.84-32.64L43.84-32.64ZM43.20-27.26L43.20-27.26Q41.34-27.26 40.16-26.43L40.16-26.43L40.16-26.43Q38.98-25.60 38.30-24.10L38.30-24.10L38.30-24.10Q37.63-22.59 37.38-20.58L37.38-20.58L37.38-20.58Q37.12-18.56 37.12-16.26L37.12-16.26L37.12-16.26Q37.12-13.89 37.41-11.78L37.41-11.78L37.41-11.78Q37.70-9.66 38.46-8.10L38.46-8.10L38.46-8.10Q39.23-6.53 40.54-5.63L40.54-5.63L40.54-5.63Q41.86-4.74 43.90-4.74L43.90-4.74L43.90-4.74Q45.76-4.74 46.94-5.57L46.94-5.57L46.94-5.57Q48.13-6.40 48.80-7.90L48.80-7.90L48.80-7.90Q49.47-9.41 49.73-11.39L49.73-11.39L49.73-11.39Q49.98-13.38 49.98-15.68L49.98-15.68L49.98-15.68Q49.98-18.05 49.70-20.16L49.70-20.16L49.70-20.16Q49.41-22.27 48.64-23.87L48.64-23.87L48.64-23.87Q47.87-25.47 46.56-26.37L46.56-26.37L46.56-26.37Q45.25-27.26 43.20-27.26L43.20-27.26ZM91.33 0L84.10 0L84.10-20.67L84.10-20.67Q84.10-23.36 83.14-24.99L83.14-24.99L83.14-24.99Q82.18-26.62 79.87-26.62L79.87-26.62L79.87-26.62Q78.40-26.62 77.02-25.89L77.02-25.89L77.02-25.89Q75.65-25.15 74.56-23.74L74.56-23.74L74.56-23.74Q73.47-22.34 72.80-20.32L72.80-20.32L72.80-20.32Q72.13-18.30 72.13-15.81L72.13-15.81L72.13 0L64.83 0L64.83-16.13L64.83-16.13Q64.83-19.97 64.32-22.56L64.32-22.56L64.32-22.56Q63.81-25.15 63.23-26.75L63.23-26.75L63.23-26.75Q62.53-28.61 61.70-29.76L61.70-29.76L67.46-32.06L67.46-32.06Q68.10-31.36 68.74-30.34L68.74-30.34L68.74-30.34Q69.25-29.44 69.76-28.13L69.76-28.13L69.76-28.13Q70.27-26.82 70.59-25.15L70.59-25.15L70.59-25.15Q72.26-28.99 75.39-30.69L75.39-30.69L75.39-30.69Q78.53-32.38 81.98-32.38L81.98-32.38L81.98-32.38Q86.91-32.38 89.12-29.41L89.12-29.41L89.12-29.41Q91.33-26.43 91.33-21.38L91.33-21.38L91.33 0ZM102.40 11.20L104.19 5.63L104.19 5.63Q105.15 6.02 106.24 6.43L106.24 6.43L106.24 6.43Q107.33 6.85 108.54 7.23L108.54 7.23L108.54 7.23Q109.76 7.62 111.01 7.87L111.01 7.87L111.01 7.87Q112.26 8.13 113.47 8.13L113.47 8.13L113.47 8.13Q117.06 8.13 118.66 5.98L118.66 5.98L118.66 5.98Q120.26 3.84 120.26 0.45L120.26 0.45L120.26 0.45Q120.26-2.88 118.85-6.27L118.85-6.27L118.85-6.27Q117.76-3.01 115.42-1.31L115.42-1.31L115.42-1.31Q113.09 0.38 109.25 0.38L109.25 0.38L109.25 0.38Q106.24 0.38 104.03-0.74L104.03-0.74L104.03-0.74Q101.82-1.86 100.35-3.94L100.35-3.94L100.35-3.94Q98.88-6.02 98.18-8.96L98.18-8.96L98.18-8.96Q97.47-11.90 97.47-15.49L97.47-15.49L97.47-15.49Q97.47-19.14 98.59-22.24L98.59-22.24L98.59-22.24Q99.71-25.34 101.73-27.58L101.73-27.58L101.73-27.58Q103.74-29.82 106.56-31.10L106.56-31.10L106.56-31.10Q109.38-32.38 112.77-32.38L112.77-32.38L112.77-32.38Q114.30-32.38 116.06-32.19L116.06-32.19L116.06-32.19Q117.82-32 119.52-31.71L119.52-31.71L119.52-31.71Q121.22-31.42 122.72-31.10L122.72-31.10L122.72-31.10Q124.22-30.78 125.31-30.53L125.31-30.53L124.99-12.93L124.99-12.93Q124.93-11.01 125.22-9.41L125.22-9.41L125.22-9.41Q125.50-7.81 125.89-6.24L125.89-6.24L125.89-6.24Q126.27-4.67 126.59-3.07L126.59-3.07L126.59-3.07Q126.91-1.47 126.91 0.45L126.91 0.45L126.91 0.45Q126.91 7.23 123.46 10.56L123.46 10.56L123.46 10.56Q120 13.89 114.11 13.89L114.11 13.89L114.11 13.89Q112.19 13.89 110.27 13.54L110.27 13.54L110.27 13.54Q108.35 13.18 106.72 12.74L106.72 12.74L106.72 12.74Q105.09 12.29 103.94 11.84L103.94 11.84L103.94 11.84Q102.78 11.39 102.40 11.20L102.40 11.20ZM110.46-4.74L110.46-4.74Q112-4.74 113.31-5.76L113.31-5.76L113.31-5.76Q114.62-6.78 115.65-8.48L115.65-8.48L115.65-8.48Q116.67-10.18 117.25-12.35L117.25-12.35L117.25-12.35Q117.82-14.53 117.82-16.83L117.82-16.83L117.82-26.56L117.82-26.56Q117.18-26.75 115.90-27.01L115.90-27.01L115.90-27.01Q114.62-27.26 113.60-27.26L113.60-27.26L113.60-27.26Q111.17-27.26 109.60-26.43L109.60-26.43L109.60-26.43Q108.03-25.60 107.07-24.13L107.07-24.13L107.07-24.13Q106.11-22.66 105.73-20.61L105.73-20.61L105.73-20.61Q105.34-18.56 105.34-16.13L105.34-16.13L105.34-16.13Q105.34-13.89 105.47-11.84L105.47-11.84L105.47-11.84Q105.60-9.79 106.14-8.19L106.14-8.19L106.14-8.19Q106.69-6.59 107.71-5.66L107.71-5.66L107.71-5.66Q108.74-4.74 110.46-4.74L110.46-4.74ZM146.18-26.69L146.18-31.87L151.94-31.87L153.22-39.36L159.23-40.70L159.23-31.87L167.10-31.87L166.21-26.69L159.23-26.69L159.23-7.74L159.23-7.74Q159.23-6.08 160.13-5.60L160.13-5.60L160.13-5.60Q161.02-5.12 162.11-5.12L162.11-5.12L162.11-5.12Q163.01-5.12 163.90-5.25L163.90-5.25L163.90-5.25Q164.80-5.38 165.50-5.57L165.50-5.57L165.50-5.57Q166.34-5.76 167.10-6.02L167.10-6.02L168.32-1.22L167.74-1.02L167.74-1.02Q167.17-0.77 166.05-0.48L166.05-0.48L166.05-0.48Q164.93-0.19 163.42 0.03L163.42 0.03L163.42 0.03Q161.92 0.26 160.13 0.26L160.13 0.26L160.13 0.26Q158.34 0.26 156.83-0.13L156.83-0.13L156.83-0.13Q155.33-0.51 154.24-1.38L154.24-1.38L154.24-1.38Q153.15-2.24 152.54-3.58L152.54-3.58L152.54-3.58Q151.94-4.93 151.94-6.91L151.94-6.91L151.94-26.69L146.18-26.69ZM169.92-15.17L169.92-15.17Q169.92-19.46 171.10-22.72L171.10-22.72L171.10-22.72Q172.29-25.98 174.37-28.19L174.37-28.19L174.37-28.19Q176.45-30.40 179.26-31.52L179.26-31.52L179.26-31.52Q182.08-32.64 185.34-32.64L185.34-32.64L185.34-32.64Q188.22-32.64 190.24-31.94L190.24-31.94L190.24-31.94Q192.26-31.23 193.54-30.02L193.54-30.02L193.54-30.02Q194.82-28.80 195.42-27.14L195.42-27.14L195.42-27.14Q196.03-25.47 196.03-23.55L196.03-23.55L196.03-23.55Q196.03-21.25 194.75-19.17L194.75-19.17L194.75-19.17Q193.47-17.09 191.07-15.52L191.07-15.52L191.07-15.52Q188.67-13.95 185.28-13.02L185.28-13.02L185.28-13.02Q181.89-12.10 177.66-12.03L177.66-12.03L177.66-12.03Q177.86-10.56 178.27-9.25L178.27-9.25L178.27-9.25Q178.69-7.94 179.49-6.94L179.49-6.94L179.49-6.94Q180.29-5.95 181.57-5.38L181.57-5.38L181.57-5.38Q182.85-4.80 184.77-4.80L184.77-4.80L184.77-4.80Q186.18-4.80 187.78-5.12L187.78-5.12L187.78-5.12Q189.38-5.44 190.72-5.89L190.72-5.89L190.72-5.89Q192.32-6.40 193.86-7.04L193.86-7.04L195.78-2.50L195.78-2.50Q194.11-1.66 192.19-1.02L192.19-1.02L192.19-1.02Q190.53-0.45 188.35 0L188.35 0L188.35 0Q186.18 0.45 183.74 0.45L183.74 0.45L183.74 0.45Q180.03 0.45 177.41-0.67L177.41-0.67L177.41-0.67Q174.78-1.79 173.12-3.84L173.12-3.84L173.12-3.84Q171.46-5.89 170.69-8.77L170.69-8.77L170.69-8.77Q169.92-11.65 169.92-15.17L169.92-15.17ZM184.77-27.65L184.77-27.65Q182.66-27.65 181.28-26.66L181.28-26.66L181.28-26.66Q179.90-25.66 179.07-24.10L179.07-24.10L179.07-24.10Q178.24-22.53 177.89-20.58L177.89-20.58L177.89-20.58Q177.54-18.62 177.47-16.64L177.47-16.64L177.47-16.64Q180.54-16.77 182.69-17.44L182.69-17.44L182.69-17.44Q184.83-18.11 186.18-19.10L186.18-19.10L186.18-19.10Q187.52-20.10 188.13-21.25L188.13-21.25L188.13-21.25Q188.74-22.40 188.74-23.55L188.74-23.55L188.74-23.55Q188.74-25.41 187.65-26.53L187.65-26.53L187.65-26.53Q186.56-27.65 184.77-27.65L184.77-27.65ZM216.38-25.22L216.38-25.22Q215.23-25.22 214.08-24.64L214.08-24.64L214.08-24.64Q212.93-24.06 212.03-23.07L212.03-23.07L212.03-23.07Q211.14-22.08 210.56-20.67L210.56-20.67L210.56-20.67Q209.98-19.26 209.98-17.54L209.98-17.54L209.98 0L202.69 0L202.69-16.13L202.69-16.13Q202.69-19.97 202.18-22.56L202.18-22.56L202.18-22.56Q201.66-25.15 201.09-26.75L201.09-26.75L201.09-26.75Q200.38-28.61 199.55-29.76L199.55-29.76L205.31-32.06L205.31-32.06Q205.89-31.36 206.53-30.34L206.53-30.34L206.53-30.34Q207.04-29.44 207.55-28.22L207.55-28.22L207.55-28.22Q208.06-27.01 208.38-25.34L208.38-25.34L208.38-25.34Q209.66-29.06 212.10-30.69L212.10-30.69L212.10-30.69Q214.53-32.32 217.60-32.32L217.60-32.32L217.60-32.32Q219.07-32.32 220.35-31.97L220.35-31.97L220.35-31.97Q221.63-31.62 221.57-31.62L221.57-31.62L219.52-24.51L219.52-24.51Q219.58-24.51 218.78-24.86L218.78-24.86L218.78-24.86Q217.98-25.22 216.38-25.22L216.38-25.22ZM269.50 0L262.27 0L262.27-20.86L262.27-20.86Q262.27-23.55 261.44-25.12L261.44-25.12L261.44-25.12Q260.61-26.69 258.56-26.69L258.56-26.69L258.56-26.69Q257.34-26.69 256.10-26.02L256.10-26.02L256.10-26.02Q254.85-25.34 253.82-24.06L253.82-24.06L253.82-24.06Q252.80-22.78 252.16-20.99L252.16-20.99L252.16-20.99Q251.52-19.20 251.52-17.02L251.52-17.02L251.52 0L244.29 0L244.29-20.86L244.29-20.86Q244.29-23.55 243.46-25.12L243.46-25.12L243.46-25.12Q242.62-26.69 240.58-26.69L240.58-26.69L240.58-26.69Q239.30-26.69 238.05-25.95L238.05-25.95L238.05-25.95Q236.80-25.22 235.81-23.81L235.81-23.81L235.81-23.81Q234.82-22.40 234.21-20.38L234.21-20.38L234.21-20.38Q233.60-18.37 233.60-15.87L233.60-15.87L233.60 0L226.30 0L226.30-16.13L226.30-16.13Q226.30-19.97 225.79-22.56L225.79-22.56L225.79-22.56Q225.28-25.15 224.70-26.75L224.70-26.75L224.70-26.75Q224.00-28.61 223.17-29.76L223.17-29.76L228.93-32.06L228.93-32.06Q229.57-31.36 230.21-30.34L230.21-30.34L230.21-30.34Q230.72-29.44 231.23-28.13L231.23-28.13L231.23-28.13Q231.74-26.82 232.06-25.15L232.06-25.15L232.06-25.15Q233.66-28.99 236.58-30.69L236.58-30.69L236.58-30.69Q239.49-32.38 242.75-32.38L242.75-32.38L242.75-32.38Q246.02-32.38 247.84-30.72L247.84-30.72L247.84-30.72Q249.66-29.06 250.56-26.43L250.56-26.43L250.56-26.43Q252.29-29.63 255.01-31.01L255.01-31.01L255.01-31.01Q257.73-32.38 260.74-32.38L260.74-32.38L260.74-32.38Q263.23-32.38 264.93-31.58L264.93-31.58L264.93-31.58Q266.62-30.78 267.62-29.34L267.62-29.34L267.62-29.34Q268.61-27.90 269.06-25.89L269.06-25.89L269.06-25.89Q269.50-23.87 269.50-21.38L269.50-21.38L269.50 0ZM301.70 12.86L294.40 14.14L294.40-16.13L294.40-16.13Q294.40-19.97 293.89-22.56L293.89-22.56L293.89-22.56Q293.38-25.15 292.80-26.75L292.80-26.75L292.80-26.75Q292.10-28.61 291.26-29.76L291.26-29.76L297.02-32.06L297.02-32.06Q297.79-31.30 298.43-30.14L298.43-30.14L298.43-30.14Q298.94-29.18 299.46-27.81L299.46-27.81L299.46-27.81Q299.97-26.43 300.22-24.58L300.22-24.58L300.22-24.58Q301.31-28.42 303.68-30.40L303.68-30.40L303.68-30.40Q306.05-32.38 310.27-32.38L310.27-32.38L310.27-32.38Q313.28-32.38 315.49-31.26L315.49-31.26L315.49-31.26Q317.70-30.14 319.14-28.06L319.14-28.06L319.14-28.06Q320.58-25.98 321.28-23.04L321.28-23.04L321.28-23.04Q321.98-20.10 321.98-16.51L321.98-16.51L321.98-16.51Q321.98-12.86 320.90-9.76L320.90-9.76L320.90-9.76Q319.81-6.66 317.79-4.42L317.79-4.42L317.79-4.42Q315.78-2.18 312.96-0.90L312.96-0.90L312.96-0.90Q310.14 0.38 306.69 0.38L306.69 0.38L306.69 0.38Q305.47 0.38 304.22 0.26L304.22 0.26L304.22 0.26Q302.98 0.13 301.70 0L301.70 0L301.70 12.86ZM309.06-27.26L309.06-27.26Q307.46-27.26 306.11-26.18L306.11-26.18L306.11-26.18Q304.77-25.09 303.78-23.30L303.78-23.30L303.78-23.30Q302.78-21.50 302.24-19.26L302.24-19.26L302.24-19.26Q301.70-17.02 301.70-14.66L301.70-14.66L301.70-5.44L301.70-5.44Q302.34-5.25 303.62-4.99L303.62-4.99L303.62-4.99Q304.90-4.74 305.86-4.74L305.86-4.74L305.86-4.74Q308.29-4.74 309.89-5.57L309.89-5.57L309.89-5.57Q311.49-6.40 312.45-7.87L312.45-7.87L312.45-7.87Q313.41-9.34 313.79-11.39L313.79-11.39L313.79-11.39Q314.18-13.44 314.18-15.87L314.18-15.87L314.18-15.87Q314.18-18.11 314.05-20.16L314.05-20.16L314.05-20.16Q313.92-22.21 313.38-23.81L313.38-23.81L313.38-23.81Q312.83-25.41 311.81-26.34L311.81-26.34L311.81-26.34Q310.78-27.26 309.06-27.26L309.06-27.26ZM335.23 0.26L335.23 0.26Q331.58 0.26 329.86-1.76L329.86-1.76L329.86-1.76Q328.13-3.78 328.13-6.91L328.13-6.91L328.13-45.12L335.42-46.46L335.42-7.62L335.42-7.62Q335.42-6.14 336-5.57L336-5.57L336-5.57Q336.58-4.99 337.66-4.99L337.66-4.99L337.66-4.99Q338.30-4.99 338.91-5.06L338.91-5.06L338.91-5.06Q339.52-5.12 340.03-5.25L340.03-5.25L340.03-5.25Q340.61-5.38 341.06-5.50L341.06-5.50L341.95-0.90L341.95-0.90Q341.12-0.58 340.10-0.32L340.10-0.32L340.10-0.32Q339.20-0.06 337.98 0.10L337.98 0.10L337.98 0.10Q336.77 0.26 335.23 0.26L335.23 0.26ZM371.84-30.53L371.84-15.42L371.84-15.42Q371.84-11.58 372.32-8.99L372.32-8.99L372.32-8.99Q372.80-6.40 373.38-4.80L373.38-4.80L373.38-4.80Q374.08-2.88 374.91-1.79L374.91-1.79L369.22 0.51L369.22 0.51Q368.38-0.32 367.68-1.47L367.68-1.47L367.68-1.47Q367.10-2.50 366.59-3.94L366.59-3.94L366.59-3.94Q366.08-5.38 365.95-7.36L365.95-7.36L365.95-7.36Q364.86-3.52 362.46-1.57L362.46-1.57L362.46-1.57Q360.06 0.38 355.97 0.38L355.97 0.38L355.97 0.38Q352.96 0.38 350.75-0.74L350.75-0.74L350.75-0.74Q348.54-1.86 347.07-3.94L347.07-3.94L347.07-3.94Q345.60-6.02 344.90-8.96L344.90-8.96L344.90-8.96Q344.19-11.90 344.19-15.49L344.19-15.49L344.19-15.49Q344.19-19.14 345.31-22.24L345.31-22.24L345.31-22.24Q346.43-25.34 348.45-27.58L348.45-27.58L348.45-27.58Q350.46-29.82 353.28-31.10L353.28-31.10L353.28-31.10Q356.10-32.38 359.49-32.38L359.49-32.38L359.49-32.38Q361.41-32.38 363.49-32.10L363.49-32.10L363.49-32.10Q365.57-31.81 367.36-31.49L367.36-31.49L367.36-31.49Q369.15-31.17 370.40-30.88L370.40-30.88L370.40-30.88Q371.65-30.59 371.84-30.53L371.84-30.53ZM357.18-4.74L357.18-4.74Q358.78-4.74 360.13-5.82L360.13-5.82L360.13-5.82Q361.47-6.91 362.46-8.67L362.46-8.67L362.46-8.67Q363.46-10.43 364.00-12.70L364.00-12.70L364.00-12.70Q364.54-14.98 364.54-17.34L364.54-17.34L364.54-26.56L364.54-26.56Q363.90-26.75 362.62-27.01L362.62-27.01L362.62-27.01Q361.34-27.26 360.32-27.26L360.32-27.26L360.32-27.26Q357.89-27.26 356.32-26.43L356.32-26.43L356.32-26.43Q354.75-25.60 353.79-24.13L353.79-24.13L353.79-24.13Q352.83-22.66 352.45-20.61L352.45-20.61L352.45-20.61Q352.06-18.56 352.06-16.13L352.06-16.13L352.06-16.13Q352.06-13.89 352.19-11.84L352.19-11.84L352.19-11.84Q352.32-9.79 352.86-8.19L352.86-8.19L352.86-8.19Q353.41-6.59 354.43-5.66L354.43-5.66L354.43-5.66Q355.46-4.74 357.18-4.74L357.18-4.74ZM406.21 0L398.98 0L398.98-20.67L398.98-20.67Q398.98-23.36 398.02-24.99L398.02-24.99L398.02-24.99Q397.06-26.62 394.75-26.62L394.75-26.62L394.75-26.62Q393.28-26.62 391.90-25.89L391.90-25.89L391.90-25.89Q390.53-25.15 389.44-23.74L389.44-23.74L389.44-23.74Q388.35-22.34 387.68-20.32L387.68-20.32L387.68-20.32Q387.01-18.30 387.01-15.81L387.01-15.81L387.01 0L379.71 0L379.71-16.13L379.71-16.13Q379.71-19.97 379.20-22.56L379.20-22.56L379.20-22.56Q378.69-25.15 378.11-26.75L378.11-26.75L378.11-26.75Q377.41-28.61 376.58-29.76L376.58-29.76L382.34-32.06L382.34-32.06Q382.98-31.36 383.62-30.34L383.62-30.34L383.62-30.34Q384.13-29.44 384.64-28.13L384.64-28.13L384.64-28.13Q385.15-26.82 385.47-25.15L385.47-25.15L385.47-25.15Q387.14-28.99 390.27-30.69L390.27-30.69L390.27-30.69Q393.41-32.38 396.86-32.38L396.86-32.38L396.86-32.38Q401.79-32.38 404.00-29.41L404.00-29.41L404.00-29.41Q406.21-26.43 406.21-21.38L406.21-21.38L406.21 0ZM423.68-32.64L423.68-32.64L423.68-32.64Q425.54-32.64 427.33-32.26L427.33-32.26L427.33-32.26Q429.12-31.87 430.53-31.36L430.53-31.36L430.53-31.36Q432.19-30.78 433.60-30.14L433.60-30.14L431.42-25.15L431.42-25.15Q430.14-25.73 428.86-26.18L428.86-26.18L428.86-26.18Q427.78-26.56 426.46-26.91L426.46-26.91L426.46-26.91Q425.15-27.26 423.87-27.26L423.87-27.26L423.87-27.26Q422.40-27.26 421.34-26.56L421.34-26.56L421.34-26.56Q420.29-25.86 420.29-24.45L420.29-24.45L420.29-24.45Q420.29-20.80 425.60-18.75L425.60-18.75L425.60-18.75Q427.58-17.98 429.18-17.12L429.18-17.12L429.18-17.12Q430.78-16.26 431.90-15.10L431.90-15.10L431.90-15.10Q433.02-13.95 433.60-12.45L433.60-12.45L433.60-12.45Q434.18-10.94 434.18-8.90L434.18-8.90L434.18-8.90Q434.18-7.10 433.44-5.38L433.44-5.38L433.44-5.38Q432.70-3.65 431.26-2.30L431.26-2.30L431.26-2.30Q429.82-0.96 427.74-0.16L427.74-0.16L427.74-0.16Q425.66 0.64 423.04 0.64L423.04 0.64L423.04 0.64Q420.93 0.64 418.88 0.16L418.88 0.16L418.88 0.16Q416.83-0.32 415.20-0.90L415.20-0.90L415.20-0.90Q413.57-1.47 412.61-1.98L412.61-1.98L411.65-2.43L414.02-7.81L414.85-7.36L414.85-7.36Q415.68-6.85 416.96-6.27L416.96-6.27L416.96-6.27Q418.24-5.70 419.71-5.22L419.71-5.22L419.71-5.22Q421.18-4.74 422.40-4.74L422.40-4.74L422.40-4.74Q424.64-4.74 425.73-5.63L425.73-5.63L425.73-5.63Q426.82-6.53 426.82-8L426.82-8L426.82-8Q426.82-9.66 425.63-11.04L425.63-11.04L425.63-11.04Q424.45-12.42 422.08-13.31L422.08-13.31L422.08-13.31Q417.15-15.17 415.01-17.54L415.01-17.54L415.01-17.54Q412.86-19.90 412.86-23.68L412.86-23.68L412.86-23.68Q412.86-25.47 413.70-27.10L413.70-27.10L413.70-27.10Q414.53-28.74 415.97-29.98L415.97-29.98L415.97-29.98Q417.41-31.23 419.39-31.94L419.39-31.94L419.39-31.94Q421.38-32.64 423.68-32.64Z" fill="url(#editing-gradient-gradient)"/></g></g><style>text {
  font-size: 64px;
  font-family: Arial Black;
  dominant-baseline: central;
  text-anchor: middle;
}</style></svg>